%TF.GenerationSoftware,KiCad,Pcbnew,(5.99.0-11663-g8172737d6f)*%
%TF.CreationDate,2021-08-09T10:24:35+02:00*%
%TF.ProjectId,Framework_Serial,4672616d-6577-46f7-926b-5f5365726961,rev?*%
%TF.SameCoordinates,Original*%
%TF.FileFunction,Legend,Top*%
%TF.FilePolarity,Positive*%
%FSLAX46Y46*%
G04 Gerber Fmt 4.6, Leading zero omitted, Abs format (unit mm)*
G04 Created by KiCad (PCBNEW (5.99.0-11663-g8172737d6f)) date 2021-08-09 10:24:35*
%MOMM*%
%LPD*%
G01*
G04 APERTURE LIST*
%ADD10C,0.150000*%
%ADD11C,0.120000*%
G04 APERTURE END LIST*
D10*
X72154761Y-31802142D02*
X72107142Y-31849761D01*
X71964285Y-31897380D01*
X71869047Y-31897380D01*
X71726190Y-31849761D01*
X71630952Y-31754523D01*
X71583333Y-31659285D01*
X71535714Y-31468809D01*
X71535714Y-31325952D01*
X71583333Y-31135476D01*
X71630952Y-31040238D01*
X71726190Y-30945000D01*
X71869047Y-30897380D01*
X71964285Y-30897380D01*
X72107142Y-30945000D01*
X72154761Y-30992619D01*
X72583333Y-31897380D02*
X72583333Y-30897380D01*
X72964285Y-30897380D01*
X73059523Y-30945000D01*
X73107142Y-30992619D01*
X73154761Y-31087857D01*
X73154761Y-31230714D01*
X73107142Y-31325952D01*
X73059523Y-31373571D01*
X72964285Y-31421190D01*
X72583333Y-31421190D01*
X73535714Y-30992619D02*
X73583333Y-30945000D01*
X73678571Y-30897380D01*
X73916666Y-30897380D01*
X74011904Y-30945000D01*
X74059523Y-30992619D01*
X74107142Y-31087857D01*
X74107142Y-31183095D01*
X74059523Y-31325952D01*
X73488095Y-31897380D01*
X74107142Y-31897380D01*
X75059523Y-31897380D02*
X74488095Y-31897380D01*
X74773809Y-31897380D02*
X74773809Y-30897380D01*
X74678571Y-31040238D01*
X74583333Y-31135476D01*
X74488095Y-31183095D01*
X75678571Y-30897380D02*
X75773809Y-30897380D01*
X75869047Y-30945000D01*
X75916666Y-30992619D01*
X75964285Y-31087857D01*
X76011904Y-31278333D01*
X76011904Y-31516428D01*
X75964285Y-31706904D01*
X75916666Y-31802142D01*
X75869047Y-31849761D01*
X75773809Y-31897380D01*
X75678571Y-31897380D01*
X75583333Y-31849761D01*
X75535714Y-31802142D01*
X75488095Y-31706904D01*
X75440476Y-31516428D01*
X75440476Y-31278333D01*
X75488095Y-31087857D01*
X75535714Y-30992619D01*
X75583333Y-30945000D01*
X75678571Y-30897380D01*
X76392857Y-30992619D02*
X76440476Y-30945000D01*
X76535714Y-30897380D01*
X76773809Y-30897380D01*
X76869047Y-30945000D01*
X76916666Y-30992619D01*
X76964285Y-31087857D01*
X76964285Y-31183095D01*
X76916666Y-31325952D01*
X76345238Y-31897380D01*
X76964285Y-31897380D01*
X72964285Y-32507380D02*
X73297619Y-33507380D01*
X73630952Y-32507380D01*
X74154761Y-32507380D02*
X74250000Y-32507380D01*
X74345238Y-32555000D01*
X74392857Y-32602619D01*
X74440476Y-32697857D01*
X74488095Y-32888333D01*
X74488095Y-33126428D01*
X74440476Y-33316904D01*
X74392857Y-33412142D01*
X74345238Y-33459761D01*
X74250000Y-33507380D01*
X74154761Y-33507380D01*
X74059523Y-33459761D01*
X74011904Y-33412142D01*
X73964285Y-33316904D01*
X73916666Y-33126428D01*
X73916666Y-32888333D01*
X73964285Y-32697857D01*
X74011904Y-32602619D01*
X74059523Y-32555000D01*
X74154761Y-32507380D01*
X74869047Y-32602619D02*
X74916666Y-32555000D01*
X75011904Y-32507380D01*
X75250000Y-32507380D01*
X75345238Y-32555000D01*
X75392857Y-32602619D01*
X75440476Y-32697857D01*
X75440476Y-32793095D01*
X75392857Y-32935952D01*
X74821428Y-33507380D01*
X75440476Y-33507380D01*
X74380952Y-49702380D02*
X74380952Y-50416666D01*
X74333333Y-50559523D01*
X74238095Y-50654761D01*
X74095238Y-50702380D01*
X74000000Y-50702380D01*
X75333333Y-50702380D02*
X74857142Y-50702380D01*
X74857142Y-49702380D01*
X76238095Y-50607142D02*
X76190476Y-50654761D01*
X76047619Y-50702380D01*
X75952380Y-50702380D01*
X75809523Y-50654761D01*
X75714285Y-50559523D01*
X75666666Y-50464285D01*
X75619047Y-50273809D01*
X75619047Y-50130952D01*
X75666666Y-49940476D01*
X75714285Y-49845238D01*
X75809523Y-49750000D01*
X75952380Y-49702380D01*
X76047619Y-49702380D01*
X76190476Y-49750000D01*
X76238095Y-49797619D01*
X76952380Y-49702380D02*
X76952380Y-50416666D01*
X76904761Y-50559523D01*
X76809523Y-50654761D01*
X76666666Y-50702380D01*
X76571428Y-50702380D01*
X77904761Y-50702380D02*
X77428571Y-50702380D01*
X77428571Y-49702380D01*
X78809523Y-50607142D02*
X78761904Y-50654761D01*
X78619047Y-50702380D01*
X78523809Y-50702380D01*
X78380952Y-50654761D01*
X78285714Y-50559523D01*
X78238095Y-50464285D01*
X78190476Y-50273809D01*
X78190476Y-50130952D01*
X78238095Y-49940476D01*
X78285714Y-49845238D01*
X78380952Y-49750000D01*
X78523809Y-49702380D01*
X78619047Y-49702380D01*
X78761904Y-49750000D01*
X78809523Y-49797619D01*
X79523809Y-49702380D02*
X79523809Y-50416666D01*
X79476190Y-50559523D01*
X79380952Y-50654761D01*
X79238095Y-50702380D01*
X79142857Y-50702380D01*
X80476190Y-50702380D02*
X80000000Y-50702380D01*
X80000000Y-49702380D01*
X81380952Y-50607142D02*
X81333333Y-50654761D01*
X81190476Y-50702380D01*
X81095238Y-50702380D01*
X80952380Y-50654761D01*
X80857142Y-50559523D01*
X80809523Y-50464285D01*
X80761904Y-50273809D01*
X80761904Y-50130952D01*
X80809523Y-49940476D01*
X80857142Y-49845238D01*
X80952380Y-49750000D01*
X81095238Y-49702380D01*
X81190476Y-49702380D01*
X81333333Y-49750000D01*
X81380952Y-49797619D01*
X82095238Y-49702380D02*
X82095238Y-50416666D01*
X82047619Y-50559523D01*
X81952380Y-50654761D01*
X81809523Y-50702380D01*
X81714285Y-50702380D01*
X83047619Y-50702380D02*
X82571428Y-50702380D01*
X82571428Y-49702380D01*
X83952380Y-50607142D02*
X83904761Y-50654761D01*
X83761904Y-50702380D01*
X83666666Y-50702380D01*
X83523809Y-50654761D01*
X83428571Y-50559523D01*
X83380952Y-50464285D01*
X83333333Y-50273809D01*
X83333333Y-50130952D01*
X83380952Y-49940476D01*
X83428571Y-49845238D01*
X83523809Y-49750000D01*
X83666666Y-49702380D01*
X83761904Y-49702380D01*
X83904761Y-49750000D01*
X83952380Y-49797619D01*
X82702380Y-43988095D02*
X81702380Y-43988095D01*
X81702380Y-43750000D01*
X81750000Y-43607142D01*
X81845238Y-43511904D01*
X81940476Y-43464285D01*
X82130952Y-43416666D01*
X82273809Y-43416666D01*
X82464285Y-43464285D01*
X82559523Y-43511904D01*
X82654761Y-43607142D01*
X82702380Y-43750000D01*
X82702380Y-43988095D01*
X82654761Y-43035714D02*
X82702380Y-42892857D01*
X82702380Y-42654761D01*
X82654761Y-42559523D01*
X82607142Y-42511904D01*
X82511904Y-42464285D01*
X82416666Y-42464285D01*
X82321428Y-42511904D01*
X82273809Y-42559523D01*
X82226190Y-42654761D01*
X82178571Y-42845238D01*
X82130952Y-42940476D01*
X82083333Y-42988095D01*
X81988095Y-43035714D01*
X81892857Y-43035714D01*
X81797619Y-42988095D01*
X81750000Y-42940476D01*
X81702380Y-42845238D01*
X81702380Y-42607142D01*
X81750000Y-42464285D01*
X82702380Y-41464285D02*
X82226190Y-41797619D01*
X82702380Y-42035714D02*
X81702380Y-42035714D01*
X81702380Y-41654761D01*
X81750000Y-41559523D01*
X81797619Y-41511904D01*
X81892857Y-41464285D01*
X82035714Y-41464285D01*
X82130952Y-41511904D01*
X82178571Y-41559523D01*
X82226190Y-41654761D01*
X82226190Y-42035714D01*
X77607142Y-45702380D02*
X77607142Y-44702380D01*
X77845238Y-44702380D01*
X77988095Y-44750000D01*
X78083333Y-44845238D01*
X78130952Y-44940476D01*
X78178571Y-45130952D01*
X78178571Y-45273809D01*
X78130952Y-45464285D01*
X78083333Y-45559523D01*
X77988095Y-45654761D01*
X77845238Y-45702380D01*
X77607142Y-45702380D01*
X78464285Y-44702380D02*
X79035714Y-44702380D01*
X78750000Y-45702380D02*
X78750000Y-44702380D01*
X79940476Y-45702380D02*
X79607142Y-45226190D01*
X79369047Y-45702380D02*
X79369047Y-44702380D01*
X79750000Y-44702380D01*
X79845238Y-44750000D01*
X79892857Y-44797619D01*
X79940476Y-44892857D01*
X79940476Y-45035714D01*
X79892857Y-45130952D01*
X79845238Y-45178571D01*
X79750000Y-45226190D01*
X79369047Y-45226190D01*
%TO.C,J1*%
X75390822Y-55016666D02*
X75390822Y-55635714D01*
X75009869Y-55302381D01*
X75009869Y-55445238D01*
X74962250Y-55540476D01*
X74914631Y-55588095D01*
X74819393Y-55635714D01*
X74581298Y-55635714D01*
X74486060Y-55588095D01*
X74438441Y-55540476D01*
X74390822Y-55445238D01*
X74390822Y-55159523D01*
X74438441Y-55064285D01*
X74486060Y-55016666D01*
X75390822Y-55921428D02*
X74390822Y-56254762D01*
X75390822Y-56588095D01*
X75390822Y-56826190D02*
X75390822Y-57445238D01*
X75009869Y-57111904D01*
X75009869Y-57254762D01*
X74962250Y-57350000D01*
X74914631Y-57397619D01*
X74819393Y-57445238D01*
X74581298Y-57445238D01*
X74486060Y-57397619D01*
X74438441Y-57350000D01*
X74390822Y-57254762D01*
X74390822Y-56969047D01*
X74438441Y-56873809D01*
X74486060Y-56826190D01*
X76967619Y-55717380D02*
X77443809Y-55384047D01*
X76967619Y-55145952D02*
X77967619Y-55145952D01*
X77967619Y-55526904D01*
X77920000Y-55622142D01*
X77872380Y-55669761D01*
X77777142Y-55717380D01*
X77634285Y-55717380D01*
X77539047Y-55669761D01*
X77491428Y-55622142D01*
X77443809Y-55526904D01*
X77443809Y-55145952D01*
X77967619Y-56003095D02*
X77967619Y-56574523D01*
X76967619Y-56288809D02*
X77967619Y-56288809D01*
X77015238Y-56860238D02*
X76967619Y-57003095D01*
X76967619Y-57241190D01*
X77015238Y-57336428D01*
X77062857Y-57384047D01*
X77158095Y-57431666D01*
X77253333Y-57431666D01*
X77348571Y-57384047D01*
X77396190Y-57336428D01*
X77443809Y-57241190D01*
X77491428Y-57050714D01*
X77539047Y-56955476D01*
X77586666Y-56907857D01*
X77681904Y-56860238D01*
X77777142Y-56860238D01*
X77872380Y-56907857D01*
X77920000Y-56955476D01*
X77967619Y-57050714D01*
X77967619Y-57288809D01*
X77920000Y-57431666D01*
X79507619Y-55471333D02*
X79983809Y-55138000D01*
X79507619Y-54899904D02*
X80507619Y-54899904D01*
X80507619Y-55280857D01*
X80460000Y-55376095D01*
X80412380Y-55423714D01*
X80317142Y-55471333D01*
X80174285Y-55471333D01*
X80079047Y-55423714D01*
X80031428Y-55376095D01*
X79983809Y-55280857D01*
X79983809Y-54899904D01*
X80507619Y-55804666D02*
X79507619Y-56471333D01*
X80507619Y-56471333D02*
X79507619Y-55804666D01*
X79507619Y-56852285D02*
X80507619Y-56852285D01*
X80507619Y-57090380D01*
X80460000Y-57233238D01*
X80364761Y-57328476D01*
X80269523Y-57376095D01*
X80079047Y-57423714D01*
X79936190Y-57423714D01*
X79745714Y-57376095D01*
X79650476Y-57328476D01*
X79555238Y-57233238D01*
X79507619Y-57090380D01*
X79507619Y-56852285D01*
X83047619Y-55003095D02*
X83047619Y-55574523D01*
X82047619Y-55288809D02*
X83047619Y-55288809D01*
X83047619Y-55812619D02*
X82047619Y-56479285D01*
X83047619Y-56479285D02*
X82047619Y-55812619D01*
X82047619Y-56860238D02*
X83047619Y-56860238D01*
X83047619Y-57098333D01*
X83000000Y-57241190D01*
X82904761Y-57336428D01*
X82809523Y-57384047D01*
X82619047Y-57431666D01*
X82476190Y-57431666D01*
X82285714Y-57384047D01*
X82190476Y-57336428D01*
X82095238Y-57241190D01*
X82047619Y-57098333D01*
X82047619Y-56860238D01*
X84629374Y-55713928D02*
X84581755Y-55666309D01*
X84534136Y-55523452D01*
X84534136Y-55428214D01*
X84581755Y-55285357D01*
X84676993Y-55190119D01*
X84772231Y-55142500D01*
X84962707Y-55094881D01*
X85105564Y-55094881D01*
X85296040Y-55142500D01*
X85391278Y-55190119D01*
X85486517Y-55285357D01*
X85534136Y-55428214D01*
X85534136Y-55523452D01*
X85486517Y-55666309D01*
X85438897Y-55713928D01*
X85534136Y-55999643D02*
X85534136Y-56571071D01*
X84534136Y-56285357D02*
X85534136Y-56285357D01*
X84581755Y-56856786D02*
X84534136Y-56999643D01*
X84534136Y-57237738D01*
X84581755Y-57332976D01*
X84629374Y-57380595D01*
X84724612Y-57428214D01*
X84819850Y-57428214D01*
X84915088Y-57380595D01*
X84962707Y-57332976D01*
X85010326Y-57237738D01*
X85057945Y-57047262D01*
X85105564Y-56952024D01*
X85153183Y-56904405D01*
X85248421Y-56856786D01*
X85343659Y-56856786D01*
X85438897Y-56904405D01*
X85486517Y-56952024D01*
X85534136Y-57047262D01*
X85534136Y-57285357D01*
X85486517Y-57428214D01*
X88048320Y-56462741D02*
X88048320Y-55986551D01*
X87572129Y-55938932D01*
X87619748Y-55986551D01*
X87667367Y-56081789D01*
X87667367Y-56319884D01*
X87619748Y-56415122D01*
X87572129Y-56462741D01*
X87476891Y-56510360D01*
X87238796Y-56510360D01*
X87143558Y-56462741D01*
X87095939Y-56415122D01*
X87048320Y-56319884D01*
X87048320Y-56081789D01*
X87095939Y-55986551D01*
X87143558Y-55938932D01*
X88048320Y-56796075D02*
X87048320Y-57129408D01*
X88048320Y-57462741D01*
X90572069Y-55315610D02*
X90619688Y-55220372D01*
X90619688Y-55077515D01*
X90572069Y-54934657D01*
X90476830Y-54839419D01*
X90381592Y-54791800D01*
X90191116Y-54744181D01*
X90048259Y-54744181D01*
X89857783Y-54791800D01*
X89762545Y-54839419D01*
X89667307Y-54934657D01*
X89619688Y-55077515D01*
X89619688Y-55172753D01*
X89667307Y-55315610D01*
X89714926Y-55363229D01*
X90048259Y-55363229D01*
X90048259Y-55172753D01*
X89619688Y-55791800D02*
X90619688Y-55791800D01*
X89619688Y-56363229D01*
X90619688Y-56363229D01*
X89619688Y-56839419D02*
X90619688Y-56839419D01*
X90619688Y-57077515D01*
X90572069Y-57220372D01*
X90476830Y-57315610D01*
X90381592Y-57363229D01*
X90191116Y-57410848D01*
X90048259Y-57410848D01*
X89857783Y-57363229D01*
X89762545Y-57315610D01*
X89667307Y-57220372D01*
X89619688Y-57077515D01*
X89619688Y-56839419D01*
D11*
X85420000Y-51475000D02*
X85420000Y-54487000D01*
X84660000Y-54487000D02*
X84660000Y-51475000D01*
X90500000Y-51475000D02*
X90500000Y-54487000D01*
X79580000Y-54487000D02*
X79580000Y-51475000D01*
X75260000Y-54487000D02*
X74500000Y-54487000D01*
X90200000Y-51475000D02*
X90200000Y-54487000D01*
X87960000Y-54487000D02*
X87200000Y-54487000D01*
X73550000Y-51475000D02*
X91450000Y-51475000D01*
X77800000Y-51475000D02*
X77800000Y-54487000D01*
X80340000Y-54487000D02*
X79580000Y-54487000D01*
X85420000Y-48417929D02*
X85420000Y-48815000D01*
X82120000Y-48417929D02*
X82120000Y-48815000D01*
X89840000Y-51475000D02*
X89840000Y-54487000D01*
X90500000Y-54487000D02*
X89740000Y-54487000D01*
X90080000Y-51475000D02*
X90080000Y-54487000D01*
X87200000Y-54487000D02*
X87200000Y-51475000D01*
X90440000Y-51475000D02*
X90440000Y-54487000D01*
X80340000Y-48417929D02*
X80340000Y-48815000D01*
X91450000Y-48815000D02*
X73550000Y-48815000D01*
X77040000Y-48417929D02*
X77040000Y-48815000D01*
X91450000Y-51475000D02*
X91450000Y-48815000D01*
X91390000Y-46105000D02*
X91390000Y-47375000D01*
X87200000Y-48417929D02*
X87200000Y-48815000D01*
X89960000Y-51475000D02*
X89960000Y-54487000D01*
X79580000Y-48417929D02*
X79580000Y-48815000D01*
X84660000Y-48417929D02*
X84660000Y-48815000D01*
X80340000Y-51475000D02*
X80340000Y-54487000D01*
X74500000Y-48417929D02*
X74500000Y-48815000D01*
X89740000Y-54487000D02*
X89740000Y-51475000D01*
X87960000Y-51475000D02*
X87960000Y-54487000D01*
X90320000Y-51475000D02*
X90320000Y-54487000D01*
X77801000Y-54487000D02*
X77041000Y-54487000D01*
X74500000Y-54487000D02*
X74500000Y-51475000D01*
X85420000Y-54487000D02*
X84660000Y-54487000D01*
X90120000Y-46105000D02*
X91390000Y-46105000D01*
X73550000Y-48815000D02*
X73550000Y-51475000D01*
X77040000Y-54487000D02*
X77040000Y-51475000D01*
X82880000Y-51475000D02*
X82880000Y-54487000D01*
X89740000Y-48485000D02*
X89740000Y-48815000D01*
X82120000Y-54487000D02*
X82120000Y-51475000D01*
X82880000Y-54487000D02*
X82120000Y-54487000D01*
X90500000Y-48485000D02*
X90500000Y-48815000D01*
X75260000Y-51475000D02*
X75260000Y-54487000D01*
X82880000Y-48417929D02*
X82880000Y-48815000D01*
X87960000Y-48417929D02*
X87960000Y-48815000D01*
X75260000Y-48417929D02*
X75260000Y-48815000D01*
X77800000Y-48417929D02*
X77800000Y-48815000D01*
%TO.C,TP4*%
X87268020Y-27811941D02*
X89168020Y-27811941D01*
X89168020Y-27811941D02*
X89168020Y-29711941D01*
X89168020Y-29711941D02*
X87268020Y-29711941D01*
X87268020Y-29711941D02*
X87268020Y-27811941D01*
%TO.C,TP3*%
X75838836Y-27802515D02*
X77738836Y-27802515D01*
X77738836Y-27802515D02*
X77738836Y-29702515D01*
X77738836Y-29702515D02*
X75838836Y-29702515D01*
X75838836Y-29702515D02*
X75838836Y-27802515D01*
%TO.C,C8*%
X85460000Y-39491422D02*
X85460000Y-40008578D01*
X84040000Y-39491422D02*
X84040000Y-40008578D01*
%TO.C,TP2*%
X83370051Y-40428698D02*
G75*
G03*
X83370051Y-40428698I-700000J0D01*
G01*
%TO.C,TP1*%
X77005662Y-45092617D02*
G75*
G03*
X77005662Y-45092617I-700000J0D01*
G01*
%TO.C,U3*%
X92910000Y-38340000D02*
X91650000Y-38340000D01*
X86090000Y-38340000D02*
X87350000Y-38340000D01*
X92910000Y-42100000D02*
X92910000Y-38340000D01*
X86090000Y-44350000D02*
X86090000Y-38340000D01*
%TO.C,C6*%
X73990000Y-36162779D02*
X73990000Y-35837221D01*
X75010000Y-36162779D02*
X75010000Y-35837221D01*
%TO.C,C3*%
X83990000Y-43162779D02*
X83990000Y-42837221D01*
X85010000Y-43162779D02*
X85010000Y-42837221D01*
%TO.C,FB1*%
X90960000Y-32303922D02*
X90960000Y-32821078D01*
X89540000Y-32303922D02*
X89540000Y-32821078D01*
%TO.C,R5*%
X70740000Y-51837221D02*
X70740000Y-52162779D01*
X71760000Y-51837221D02*
X71760000Y-52162779D01*
%TO.C,U2*%
X74640000Y-42635000D02*
X74640000Y-43360000D01*
X74640000Y-38865000D02*
X74640000Y-38140000D01*
X79860000Y-42635000D02*
X79860000Y-43360000D01*
X74640000Y-38140000D02*
X75365000Y-38140000D01*
X79860000Y-43360000D02*
X79135000Y-43360000D01*
X79860000Y-38865000D02*
X79860000Y-38140000D01*
X74640000Y-43360000D02*
X75365000Y-43360000D01*
%TO.C,R6*%
X93240000Y-51837221D02*
X93240000Y-52162779D01*
X94260000Y-51837221D02*
X94260000Y-52162779D01*
%TO.C,C1*%
X87740000Y-32337221D02*
X87740000Y-32662779D01*
X88760000Y-32337221D02*
X88760000Y-32662779D01*
%TO.C,U1*%
X85360000Y-36400000D02*
X85360000Y-34600000D01*
X82140000Y-34600000D02*
X82140000Y-37050000D01*
%TO.C,D1*%
X71985000Y-56735000D02*
X71985000Y-54450000D01*
X70515000Y-56735000D02*
X71985000Y-56735000D01*
X70515000Y-54450000D02*
X70515000Y-56735000D01*
%TO.C,D2*%
X93015000Y-56735000D02*
X94485000Y-56735000D01*
X93015000Y-54450000D02*
X93015000Y-56735000D01*
X94485000Y-56735000D02*
X94485000Y-54450000D01*
%TO.C,C2*%
X91740000Y-32662779D02*
X91740000Y-32337221D01*
X92760000Y-32662779D02*
X92760000Y-32337221D01*
%TD*%
M02*
