%TF.GenerationSoftware,KiCad,Pcbnew,(5.99.0-11663-g8172737d6f)*%
%TF.CreationDate,2021-08-09T10:24:35+02:00*%
%TF.ProjectId,Framework_Serial,4672616d-6577-46f7-926b-5f5365726961,rev?*%
%TF.SameCoordinates,Original*%
%TF.FileFunction,Copper,L1,Top*%
%TF.FilePolarity,Positive*%
%FSLAX46Y46*%
G04 Gerber Fmt 4.6, Leading zero omitted, Abs format (unit mm)*
G04 Created by KiCad (PCBNEW (5.99.0-11663-g8172737d6f)) date 2021-08-09 10:24:35*
%MOMM*%
%LPD*%
G01*
G04 APERTURE LIST*
G04 Aperture macros list*
%AMRoundRect*
0 Rectangle with rounded corners*
0 $1 Rounding radius*
0 $2 $3 $4 $5 $6 $7 $8 $9 X,Y pos of 4 corners*
0 Add a 4 corners polygon primitive as box body*
4,1,4,$2,$3,$4,$5,$6,$7,$8,$9,$2,$3,0*
0 Add four circle primitives for the rounded corners*
1,1,$1+$1,$2,$3*
1,1,$1+$1,$4,$5*
1,1,$1+$1,$6,$7*
1,1,$1+$1,$8,$9*
0 Add four rect primitives between the rounded corners*
20,1,$1+$1,$2,$3,$4,$5,0*
20,1,$1+$1,$4,$5,$6,$7,0*
20,1,$1+$1,$6,$7,$8,$9,0*
20,1,$1+$1,$8,$9,$2,$3,0*%
G04 Aperture macros list end*
%TA.AperFunction,ComponentPad*%
%ADD10R,1.700000X1.700000*%
%TD*%
%TA.AperFunction,ComponentPad*%
%ADD11O,1.700000X1.700000*%
%TD*%
%TA.AperFunction,SMDPad,CuDef*%
%ADD12R,1.500000X1.500000*%
%TD*%
%TA.AperFunction,SMDPad,CuDef*%
%ADD13RoundRect,0.243750X-0.456250X0.243750X-0.456250X-0.243750X0.456250X-0.243750X0.456250X0.243750X0*%
%TD*%
%TA.AperFunction,SMDPad,CuDef*%
%ADD14C,1.000000*%
%TD*%
%TA.AperFunction,SMDPad,CuDef*%
%ADD15R,3.800000X2.000000*%
%TD*%
%TA.AperFunction,SMDPad,CuDef*%
%ADD16R,1.500000X2.000000*%
%TD*%
%TA.AperFunction,SMDPad,CuDef*%
%ADD17RoundRect,0.147500X-0.147500X-0.172500X0.147500X-0.172500X0.147500X0.172500X-0.147500X0.172500X0*%
%TD*%
%TA.AperFunction,SMDPad,CuDef*%
%ADD18RoundRect,0.147500X0.147500X0.172500X-0.147500X0.172500X-0.147500X-0.172500X0.147500X-0.172500X0*%
%TD*%
%TA.AperFunction,SMDPad,CuDef*%
%ADD19RoundRect,0.147500X-0.172500X0.147500X-0.172500X-0.147500X0.172500X-0.147500X0.172500X0.147500X0*%
%TD*%
%TA.AperFunction,SMDPad,CuDef*%
%ADD20RoundRect,0.147500X0.172500X-0.147500X0.172500X0.147500X-0.172500X0.147500X-0.172500X-0.147500X0*%
%TD*%
%TA.AperFunction,SMDPad,CuDef*%
%ADD21RoundRect,0.218750X0.256250X-0.218750X0.256250X0.218750X-0.256250X0.218750X-0.256250X-0.218750X0*%
%TD*%
%TA.AperFunction,SMDPad,CuDef*%
%ADD22RoundRect,0.218750X-0.256250X0.218750X-0.256250X-0.218750X0.256250X-0.218750X0.256250X0.218750X0*%
%TD*%
%TA.AperFunction,SMDPad,CuDef*%
%ADD23RoundRect,0.062500X-0.062500X0.337500X-0.062500X-0.337500X0.062500X-0.337500X0.062500X0.337500X0*%
%TD*%
%TA.AperFunction,SMDPad,CuDef*%
%ADD24RoundRect,0.062500X-0.337500X0.062500X-0.337500X-0.062500X0.337500X-0.062500X0.337500X0.062500X0*%
%TD*%
%TA.AperFunction,SMDPad,CuDef*%
%ADD25R,3.350000X3.350000*%
%TD*%
%TA.AperFunction,SMDPad,CuDef*%
%ADD26R,0.380000X1.000000*%
%TD*%
%TA.AperFunction,SMDPad,CuDef*%
%ADD27R,0.700000X1.150000*%
%TD*%
%TA.AperFunction,SMDPad,CuDef*%
%ADD28R,0.650000X1.060000*%
%TD*%
%TA.AperFunction,ViaPad*%
%ADD29C,0.800000*%
%TD*%
%TA.AperFunction,Conductor*%
%ADD30C,0.200000*%
%TD*%
%TA.AperFunction,Conductor*%
%ADD31C,0.300000*%
%TD*%
%TA.AperFunction,Conductor*%
%ADD32C,0.500000*%
%TD*%
%TA.AperFunction,Conductor*%
%ADD33C,0.250000*%
%TD*%
G04 APERTURE END LIST*
D10*
%TO.P,J1,1,Pin_1*%
%TO.N,GND*%
X90120000Y-47375000D03*
D11*
%TO.P,J1,2,Pin_2*%
%TO.N,+5V*%
X87580000Y-47375000D03*
%TO.P,J1,3,Pin_3*%
%TO.N,CTS*%
X85040000Y-47375000D03*
%TO.P,J1,4,Pin_4*%
%TO.N,TXD*%
X82500000Y-47375000D03*
%TO.P,J1,5,Pin_5*%
%TO.N,RXD*%
X79960000Y-47375000D03*
%TO.P,J1,6,Pin_6*%
%TO.N,RTS*%
X77420000Y-47375000D03*
%TO.P,J1,7,Pin_7*%
%TO.N,+3V3*%
X74880000Y-47375000D03*
%TD*%
D12*
%TO.P,TP4,1,1*%
%TO.N,GND*%
X88218020Y-28761941D03*
%TD*%
%TO.P,TP3,1,1*%
%TO.N,GND*%
X76788836Y-28752515D03*
%TD*%
D13*
%TO.P,C8,1*%
%TO.N,+3V3*%
X84750000Y-38812500D03*
%TO.P,C8,2*%
%TO.N,GND*%
X84750000Y-40687500D03*
%TD*%
D14*
%TO.P,TP2,1,1*%
%TO.N,DSR*%
X82670051Y-40428698D03*
%TD*%
%TO.P,TP1,1,1*%
%TO.N,DTR*%
X76305662Y-45092617D03*
%TD*%
D15*
%TO.P,U3,2,VO*%
%TO.N,+3V3*%
X89500000Y-37100000D03*
D16*
X89500000Y-43400000D03*
%TO.P,U3,3,VI*%
%TO.N,+5V*%
X91800000Y-43400000D03*
%TO.P,U3,1,GND*%
%TO.N,GND*%
X87200000Y-43400000D03*
%TD*%
D17*
%TO.P,R4,1*%
%TO.N,GND*%
X72015000Y-40500000D03*
%TO.P,R4,2*%
%TO.N,Net-(R3-Pad1)*%
X72985000Y-40500000D03*
%TD*%
D18*
%TO.P,R3,1*%
%TO.N,Net-(R3-Pad1)*%
X72985000Y-39500000D03*
%TO.P,R3,2*%
%TO.N,+5V*%
X72015000Y-39500000D03*
%TD*%
D17*
%TO.P,R2,1*%
%TO.N,+3V3*%
X72015000Y-41500000D03*
%TO.P,R2,2*%
%TO.N,Net-(R2-Pad2)*%
X72985000Y-41500000D03*
%TD*%
D19*
%TO.P,R1,1*%
%TO.N,Net-(P1-PadA5)*%
X80250000Y-33265000D03*
%TO.P,R1,2*%
%TO.N,GND*%
X80250000Y-34235000D03*
%TD*%
D20*
%TO.P,C7,1*%
%TO.N,+3V3*%
X75750000Y-36985000D03*
%TO.P,C7,2*%
%TO.N,GND*%
X75750000Y-36015000D03*
%TD*%
D21*
%TO.P,C6,1*%
%TO.N,+3V3*%
X74500000Y-36787500D03*
%TO.P,C6,2*%
%TO.N,GND*%
X74500000Y-35212500D03*
%TD*%
%TO.P,C3,1*%
%TO.N,+5V*%
X84500000Y-43787500D03*
%TO.P,C3,2*%
%TO.N,GND*%
X84500000Y-42212500D03*
%TD*%
D13*
%TO.P,FB1,1*%
%TO.N,VBUS*%
X90250000Y-31625000D03*
%TO.P,FB1,2*%
%TO.N,+5V*%
X90250000Y-33500000D03*
%TD*%
D22*
%TO.P,R5,1*%
%TO.N,+3V3*%
X71250000Y-51212500D03*
%TO.P,R5,2*%
%TO.N,Net-(D1-Pad2)*%
X71250000Y-52787500D03*
%TD*%
D23*
%TO.P,U2,1,~DCD*%
%TO.N,DCD*%
X78750000Y-38300000D03*
%TO.P,U2,2,~RI~/CLK*%
%TO.N,unconnected-(U2-Pad2)*%
X78250000Y-38300000D03*
%TO.P,U2,3,GND*%
%TO.N,GND*%
X77750000Y-38300000D03*
%TO.P,U2,4,D+*%
%TO.N,ESD_D+*%
X77250000Y-38300000D03*
%TO.P,U2,5,D-*%
%TO.N,ESD_D-*%
X76750000Y-38300000D03*
%TO.P,U2,6,VDD*%
%TO.N,+3V3*%
X76250000Y-38300000D03*
%TO.P,U2,7,REGIN*%
X75750000Y-38300000D03*
D24*
%TO.P,U2,8,VBUS*%
%TO.N,Net-(R3-Pad1)*%
X74800000Y-39250000D03*
%TO.P,U2,9,~RSTb*%
%TO.N,Net-(R2-Pad2)*%
X74800000Y-39750000D03*
%TO.P,U2,10,NC*%
%TO.N,unconnected-(U2-Pad10)*%
X74800000Y-40250000D03*
%TO.P,U2,11,~SUSPENDb*%
%TO.N,unconnected-(U2-Pad11)*%
X74800000Y-40750000D03*
%TO.P,U2,12,SUSPEND*%
%TO.N,unconnected-(U2-Pad12)*%
X74800000Y-41250000D03*
%TO.P,U2,13,CHREN*%
%TO.N,unconnected-(U2-Pad13)*%
X74800000Y-41750000D03*
%TO.P,U2,14,CHR1*%
%TO.N,unconnected-(U2-Pad14)*%
X74800000Y-42250000D03*
D23*
%TO.P,U2,15,CHR0*%
%TO.N,unconnected-(U2-Pad15)*%
X75750000Y-43200000D03*
%TO.P,U2,16,~WAKEUP~/GPIO.3*%
%TO.N,unconnected-(U2-Pad16)*%
X76250000Y-43200000D03*
%TO.P,U2,17,RS485/GPIO.2*%
%TO.N,unconnected-(U2-Pad17)*%
X76750000Y-43200000D03*
%TO.P,U2,18,~RXT~/GPIO.1*%
%TO.N,unconnected-(U2-Pad18)*%
X77250000Y-43200000D03*
%TO.P,U2,19,~TXT~/GPIO.0*%
%TO.N,unconnected-(U2-Pad19)*%
X77750000Y-43200000D03*
%TO.P,U2,20,GPIO.6*%
%TO.N,unconnected-(U2-Pad20)*%
X78250000Y-43200000D03*
%TO.P,U2,21,GPIO.5*%
%TO.N,unconnected-(U2-Pad21)*%
X78750000Y-43200000D03*
D24*
%TO.P,U2,22,GPIO.4*%
%TO.N,unconnected-(U2-Pad22)*%
X79700000Y-42250000D03*
%TO.P,U2,23,~CTS*%
%TO.N,CTS*%
X79700000Y-41750000D03*
%TO.P,U2,24,~RTS*%
%TO.N,RTS*%
X79700000Y-41250000D03*
%TO.P,U2,25,RXD*%
%TO.N,RXD*%
X79700000Y-40750000D03*
%TO.P,U2,26,TXD*%
%TO.N,TXD*%
X79700000Y-40250000D03*
%TO.P,U2,27,~DSR*%
%TO.N,DSR*%
X79700000Y-39750000D03*
%TO.P,U2,28,~DTR*%
%TO.N,DTR*%
X79700000Y-39250000D03*
D25*
%TO.P,U2,29,GND*%
%TO.N,GND*%
X77250000Y-40750000D03*
%TD*%
D22*
%TO.P,R6,1*%
%TO.N,+3V3*%
X93750000Y-51212500D03*
%TO.P,R6,2*%
%TO.N,Net-(D2-Pad2)*%
X93750000Y-52787500D03*
%TD*%
D26*
%TO.P,P1,A1,GND*%
%TO.N,GND*%
X79750000Y-29790000D03*
%TO.P,P1,A2*%
%TO.N,N/C*%
X80250000Y-29790000D03*
%TO.P,P1,A3*%
X80750000Y-29790000D03*
%TO.P,P1,A4,VBUS*%
%TO.N,VBUS*%
X81250000Y-29790000D03*
%TO.P,P1,A5,CC*%
%TO.N,Net-(P1-PadA5)*%
X81750000Y-29790000D03*
%TO.P,P1,A6,D+*%
%TO.N,D+*%
X82250000Y-29790000D03*
%TO.P,P1,A7,D-*%
%TO.N,D-*%
X82750000Y-29790000D03*
%TO.P,P1,A8*%
%TO.N,N/C*%
X83250000Y-29790000D03*
%TO.P,P1,A9,VBUS*%
%TO.N,VBUS*%
X83750000Y-29790000D03*
%TO.P,P1,A10*%
%TO.N,N/C*%
X84250000Y-29790000D03*
%TO.P,P1,A11*%
X84750000Y-29790000D03*
%TO.P,P1,A12,GND*%
%TO.N,GND*%
X85250000Y-29790000D03*
D27*
%TO.P,P1,S1,SHIELD*%
X79080000Y-30630000D03*
%TD*%
D22*
%TO.P,C1,1*%
%TO.N,VBUS*%
X88250000Y-31712500D03*
%TO.P,C1,2*%
%TO.N,GND*%
X88250000Y-33287500D03*
%TD*%
D28*
%TO.P,U1,1,I/O1*%
%TO.N,ESD_D+*%
X82800000Y-36600000D03*
%TO.P,U1,2,GND*%
%TO.N,GND*%
X83750000Y-36600000D03*
%TO.P,U1,3,I/O2*%
%TO.N,ESD_D-*%
X84700000Y-36600000D03*
%TO.P,U1,4,I/O2*%
%TO.N,D-*%
X84700000Y-34400000D03*
%TO.P,U1,5,VBUS*%
%TO.N,+5V*%
X83750000Y-34400000D03*
%TO.P,U1,6,I/O1*%
%TO.N,D+*%
X82800000Y-34400000D03*
%TD*%
D21*
%TO.P,D1,1,K*%
%TO.N,RXD*%
X71250000Y-56037500D03*
%TO.P,D1,2,A*%
%TO.N,Net-(D1-Pad2)*%
X71250000Y-54462500D03*
%TD*%
%TO.P,D2,1,K*%
%TO.N,TXD*%
X93750000Y-56037500D03*
%TO.P,D2,2,A*%
%TO.N,Net-(D2-Pad2)*%
X93750000Y-54462500D03*
%TD*%
%TO.P,C2,1*%
%TO.N,+5V*%
X92250000Y-33287500D03*
%TO.P,C2,2*%
%TO.N,GND*%
X92250000Y-31712500D03*
%TD*%
D29*
%TO.N,GND*%
X70750000Y-40500000D03*
X94500000Y-40250000D03*
X73250000Y-42750000D03*
X91500000Y-40500000D03*
X75000000Y-44500000D03*
X86250000Y-36500000D03*
X79750000Y-37250000D03*
X77750000Y-41250000D03*
X76750000Y-41250000D03*
X77750000Y-40250000D03*
X76750000Y-40250000D03*
%TO.N,DTR*%
X77750000Y-44500000D03*
X81625000Y-39375000D03*
%TO.N,CTS*%
X80250000Y-44250000D03*
%TO.N,GND*%
X77000000Y-32750000D03*
X94500000Y-33500000D03*
X87750000Y-40500000D03*
X86750000Y-40500000D03*
X70750000Y-44000000D03*
%TO.N,+3V3*%
X73500000Y-44250000D03*
%TO.N,VBUS*%
X86750000Y-32500000D03*
%TO.N,+3V3*%
X81250000Y-37750000D03*
X88492083Y-37596112D03*
X89492083Y-37596112D03*
X90492083Y-37596112D03*
X90492083Y-36596112D03*
X89492083Y-36596112D03*
X88492083Y-36596112D03*
X74250000Y-38500000D03*
%TO.N,+5V*%
X77000000Y-34500000D03*
X71500000Y-38500000D03*
%TO.N,VBUS*%
X80500000Y-31500000D03*
%TO.N,GND*%
X90250000Y-56750000D03*
X77000000Y-56750000D03*
X91250000Y-49750000D03*
X88250000Y-34000000D03*
X94500000Y-44000000D03*
X76750000Y-28750000D03*
X82500000Y-56750000D03*
X88250000Y-28750000D03*
X93000000Y-29250000D03*
X94500000Y-37000000D03*
X87500000Y-56750000D03*
X74500000Y-56750000D03*
X85000000Y-56750000D03*
X70750000Y-33250000D03*
X79500000Y-56750000D03*
X72500000Y-50000000D03*
X88250000Y-30500000D03*
X91250000Y-52500000D03*
X70750000Y-36500000D03*
X73250000Y-55000000D03*
X73250000Y-52500000D03*
%TO.N,+5V*%
X86750000Y-34750000D03*
%TO.N,+3V3*%
X84500000Y-50250000D03*
%TD*%
D30*
%TO.N,+3V3*%
X74500000Y-37250000D02*
X74500000Y-36787500D01*
D31*
X74500000Y-37250000D02*
X74765000Y-36985000D01*
D32*
X74250000Y-38500000D02*
X74250000Y-37500000D01*
X74250000Y-37500000D02*
X74500000Y-37250000D01*
D31*
X74765000Y-36985000D02*
X75750000Y-36985000D01*
X75750000Y-38300000D02*
X75750000Y-36985000D01*
D30*
%TO.N,GND*%
X85750000Y-37500000D02*
X86250000Y-37000000D01*
X86250000Y-37000000D02*
X86250000Y-36500000D01*
X83920000Y-37500000D02*
X85750000Y-37500000D01*
X83750000Y-37330000D02*
X83920000Y-37500000D01*
X83750000Y-36600000D02*
X83750000Y-37330000D01*
X78386294Y-37250000D02*
X79750000Y-37250000D01*
X77750000Y-37886294D02*
X78386294Y-37250000D01*
X77750000Y-38300000D02*
X77750000Y-37886294D01*
D32*
%TO.N,+3V3*%
X81750000Y-38250000D02*
X84500000Y-38250000D01*
X81250000Y-37750000D02*
X81750000Y-38250000D01*
D30*
%TO.N,DTR*%
X77157383Y-45092617D02*
X77750000Y-44500000D01*
X76305662Y-45092617D02*
X77157383Y-45092617D01*
X81500000Y-39250000D02*
X81625000Y-39375000D01*
X79700000Y-39250000D02*
X81500000Y-39250000D01*
X81625000Y-39375000D02*
X81750000Y-39500000D01*
%TO.N,DSR*%
X81565006Y-40500000D02*
X82750000Y-40500000D01*
X80815006Y-39750000D02*
X81565006Y-40500000D01*
X79700000Y-39750000D02*
X80815006Y-39750000D01*
%TO.N,CTS*%
X80500000Y-44250000D02*
X80250000Y-44250000D01*
X81000000Y-42500000D02*
X81000000Y-43750000D01*
X80250000Y-41750000D02*
X81000000Y-42500000D01*
X81000000Y-43750000D02*
X80500000Y-44250000D01*
%TO.N,GND*%
X79200000Y-30750000D02*
X79080000Y-30630000D01*
X79500000Y-30750000D02*
X79200000Y-30750000D01*
X79750000Y-30500000D02*
X79500000Y-30750000D01*
X79750000Y-29790000D02*
X79750000Y-30500000D01*
%TO.N,CTS*%
X79700000Y-41750000D02*
X80250000Y-41750000D01*
%TO.N,+3V3*%
X72750000Y-44250000D02*
X73500000Y-44250000D01*
X72015000Y-43515000D02*
X72750000Y-44250000D01*
X72015000Y-41500000D02*
X72015000Y-43515000D01*
%TO.N,ESD_D+*%
X77750000Y-36250000D02*
X77250000Y-36750000D01*
X82800000Y-36600000D02*
X82450000Y-36250000D01*
X82450000Y-36250000D02*
X77750000Y-36250000D01*
X77250000Y-36750000D02*
X77250000Y-38300000D01*
%TO.N,+5V*%
X82250000Y-35370969D02*
X83879031Y-35370969D01*
X82108542Y-35229511D02*
X82250000Y-35370969D01*
X77729511Y-35229511D02*
X82108542Y-35229511D01*
X83879031Y-35370969D02*
X83935000Y-35315000D01*
X77000000Y-34500000D02*
X77729511Y-35229511D01*
%TO.N,RTS*%
X80500000Y-41250000D02*
X79700000Y-41250000D01*
X81750000Y-42500000D02*
X80500000Y-41250000D01*
X80750000Y-45250000D02*
X81750000Y-44250000D01*
X78000000Y-45250000D02*
X80750000Y-45250000D01*
X77420000Y-45830000D02*
X78000000Y-45250000D01*
X81750000Y-44250000D02*
X81750000Y-42500000D01*
%TO.N,RXD*%
X82250000Y-42434994D02*
X80565006Y-40750000D01*
X80565006Y-40750000D02*
X79700000Y-40750000D01*
X82250000Y-44750000D02*
X82250000Y-42434994D01*
D33*
X79960000Y-46540000D02*
X80500000Y-46000000D01*
D30*
X81000000Y-46000000D02*
X82250000Y-44750000D01*
X80500000Y-46000000D02*
X81000000Y-46000000D01*
D33*
X79960000Y-47375000D02*
X79960000Y-46540000D01*
D30*
%TO.N,TXD*%
X82750000Y-42250000D02*
X80750000Y-40250000D01*
X82750000Y-46000000D02*
X82750000Y-42250000D01*
X82500000Y-46250000D02*
X82750000Y-46000000D01*
X80750000Y-40250000D02*
X79700000Y-40250000D01*
D32*
%TO.N,+3V3*%
X74880000Y-45630000D02*
X74880000Y-47375000D01*
X73500000Y-44250000D02*
X74880000Y-45630000D01*
D30*
%TO.N,GND*%
X85250000Y-29790000D02*
X85250000Y-30750000D01*
%TO.N,D-*%
X84700000Y-33131800D02*
X84700000Y-34400000D01*
X82750000Y-31181800D02*
X84700000Y-33131800D01*
X82750000Y-29790000D02*
X82750000Y-31181800D01*
%TO.N,D+*%
X82750000Y-34350000D02*
X82800000Y-34400000D01*
X82750000Y-33000000D02*
X82750000Y-34350000D01*
X83090900Y-32659100D02*
X82750000Y-33000000D01*
X83090900Y-32159100D02*
X83090900Y-32659100D01*
X82250000Y-31318200D02*
X83090900Y-32159100D01*
X82250000Y-29790000D02*
X82250000Y-31318200D01*
%TO.N,VBUS*%
X83750000Y-31000000D02*
X83750000Y-29790000D01*
D31*
X85250000Y-32500000D02*
X86750000Y-32500000D01*
X83750000Y-31000000D02*
X85250000Y-32500000D01*
D32*
%TO.N,+5V*%
X93000000Y-42200000D02*
X91800000Y-43400000D01*
X91750000Y-35250000D02*
X93000000Y-36500000D01*
X89000000Y-35250000D02*
X91750000Y-35250000D01*
X93000000Y-36500000D02*
X93000000Y-42200000D01*
D31*
%TO.N,+3V3*%
X84500000Y-38962500D02*
X84500000Y-38250000D01*
D32*
X86250000Y-38250000D02*
X84500000Y-38250000D01*
D31*
%TO.N,+5V*%
X85920000Y-45920000D02*
X87580000Y-45920000D01*
X84500000Y-44500000D02*
X85920000Y-45920000D01*
X84500000Y-43787500D02*
X84500000Y-44500000D01*
D32*
%TO.N,+3V3*%
X86903888Y-37596112D02*
X86250000Y-38250000D01*
X88492083Y-37596112D02*
X86903888Y-37596112D01*
X89492083Y-40242083D02*
X89492083Y-37596112D01*
D30*
%TO.N,+5V*%
X83935000Y-35315000D02*
X83750000Y-35130000D01*
X83990969Y-35370969D02*
X83935000Y-35315000D01*
X72015000Y-38985000D02*
X72015000Y-39500000D01*
X71500000Y-38500000D02*
X71530000Y-38500000D01*
X71530000Y-38500000D02*
X72015000Y-38985000D01*
D32*
X91800000Y-45200000D02*
X91800000Y-43400000D01*
X88000000Y-45500000D02*
X91500000Y-45500000D01*
X91500000Y-45500000D02*
X91800000Y-45200000D01*
X87580000Y-45920000D02*
X88000000Y-45500000D01*
X87580000Y-47375000D02*
X87580000Y-45920000D01*
X89000000Y-35250000D02*
X89250000Y-35250000D01*
X87250000Y-35250000D02*
X89000000Y-35250000D01*
X89250000Y-35250000D02*
X90250000Y-34250000D01*
X86750000Y-34750000D02*
X87250000Y-35250000D01*
X90250000Y-34250000D02*
X90250000Y-33500000D01*
D30*
X83750000Y-35130000D02*
X83750000Y-34400000D01*
X86129031Y-35370969D02*
X83990969Y-35370969D01*
X86750000Y-34750000D02*
X86129031Y-35370969D01*
%TO.N,Net-(P1-PadA5)*%
X80250000Y-33250000D02*
X80250000Y-33265000D01*
X81750000Y-31750000D02*
X80250000Y-33250000D01*
%TO.N,ESD_D-*%
X84600489Y-35770489D02*
X77563545Y-35770489D01*
X77563545Y-35770489D02*
X76750000Y-36584034D01*
X76750000Y-36584034D02*
X76750000Y-38300000D01*
X84700000Y-35870000D02*
X84600489Y-35770489D01*
X84700000Y-36600000D02*
X84700000Y-35870000D01*
%TO.N,Net-(P1-PadA5)*%
X81750000Y-29790000D02*
X81750000Y-31750000D01*
%TO.N,+3V3*%
X76000000Y-37500000D02*
X75750000Y-37500000D01*
X76250000Y-37750000D02*
X76000000Y-37500000D01*
X76250000Y-38300000D02*
X76250000Y-37750000D01*
%TO.N,Net-(R3-Pad1)*%
X73500000Y-39500000D02*
X73750000Y-39250000D01*
X72985000Y-39500000D02*
X73500000Y-39500000D01*
X73750000Y-39250000D02*
X74800000Y-39250000D01*
X72985000Y-40500000D02*
X72985000Y-39500000D01*
%TO.N,Net-(R2-Pad2)*%
X74000000Y-39750000D02*
X74800000Y-39750000D01*
X73750000Y-40000000D02*
X74000000Y-39750000D01*
X73750000Y-41000000D02*
X73750000Y-40000000D01*
X73250000Y-41500000D02*
X73750000Y-41000000D01*
X72985000Y-41500000D02*
X73250000Y-41500000D01*
D33*
%TO.N,VBUS*%
X88337500Y-31625000D02*
X88250000Y-31712500D01*
D30*
X80500000Y-31500000D02*
X81250000Y-30750000D01*
D32*
X86750000Y-32500000D02*
X87462500Y-32500000D01*
X88250000Y-31712500D02*
X90162500Y-31712500D01*
X87462500Y-32500000D02*
X88250000Y-31712500D01*
X90162500Y-31712500D02*
X90250000Y-31625000D01*
D30*
X81250000Y-30750000D02*
X81250000Y-29790000D01*
%TO.N,GND*%
X88250000Y-33287500D02*
X88250000Y-34000000D01*
X85250000Y-29790000D02*
X85250000Y-30000000D01*
D32*
%TO.N,+5V*%
X90250000Y-33500000D02*
X92037500Y-33500000D01*
X92037500Y-33500000D02*
X92250000Y-33287500D01*
D30*
%TO.N,+3V3*%
X93750000Y-51212500D02*
X85462500Y-51212500D01*
X71250000Y-51212500D02*
X72776759Y-51212500D01*
X85462500Y-51212500D02*
X84500000Y-50250000D01*
X74880000Y-49109259D02*
X74880000Y-47375000D01*
X72776759Y-51212500D02*
X74880000Y-49109259D01*
D33*
%TO.N,RTS*%
X77420000Y-47375000D02*
X77420000Y-45830000D01*
D30*
%TO.N,RXD*%
X79960000Y-52290000D02*
X79960000Y-47375000D01*
X71250000Y-56037500D02*
X73712500Y-56037500D01*
X73712500Y-56037500D02*
X74750000Y-55000000D01*
X74750000Y-55000000D02*
X77250000Y-55000000D01*
X77250000Y-55000000D02*
X79960000Y-52290000D01*
%TO.N,TXD*%
X90917870Y-56037500D02*
X90130370Y-55250000D01*
X93750000Y-56037500D02*
X90917870Y-56037500D01*
X82500000Y-52250000D02*
X82500000Y-47375000D01*
D33*
X82500000Y-47375000D02*
X82500000Y-46250000D01*
D30*
X90130370Y-55250000D02*
X85500000Y-55250000D01*
X85500000Y-55250000D02*
X82500000Y-52250000D01*
%TO.N,Net-(D1-Pad2)*%
X71250000Y-52787500D02*
X71250000Y-54462500D01*
%TO.N,Net-(D2-Pad2)*%
X93750000Y-52787500D02*
X93750000Y-54462500D01*
%TD*%
%TA.AperFunction,Conductor*%
%TO.N,GND*%
G36*
X81265429Y-47393087D02*
G01*
X81325109Y-47431542D01*
X81354525Y-47496158D01*
X81355515Y-47505695D01*
X81358796Y-47555749D01*
X81360217Y-47561345D01*
X81360218Y-47561350D01*
X81382000Y-47647115D01*
X81410845Y-47760690D01*
X81413262Y-47765933D01*
X81447169Y-47839483D01*
X81499369Y-47952714D01*
X81621405Y-48125391D01*
X81625539Y-48129418D01*
X81756865Y-48257350D01*
X81772865Y-48272937D01*
X81777661Y-48276142D01*
X81777664Y-48276144D01*
X81877129Y-48342604D01*
X81948677Y-48390411D01*
X81953980Y-48392689D01*
X81953985Y-48392692D01*
X82023237Y-48422444D01*
X82077930Y-48467712D01*
X82099500Y-48538212D01*
X82099500Y-52313433D01*
X82102564Y-52322864D01*
X82102565Y-52322868D01*
X82106297Y-52334353D01*
X82110913Y-52353578D01*
X82114354Y-52375304D01*
X82118855Y-52384137D01*
X82118856Y-52384141D01*
X82124341Y-52394906D01*
X82131905Y-52413166D01*
X82138704Y-52434090D01*
X82151639Y-52451893D01*
X82161965Y-52468745D01*
X82171950Y-52488342D01*
X82194513Y-52510905D01*
X82194516Y-52510909D01*
X85239091Y-55555484D01*
X85239095Y-55555487D01*
X85261658Y-55578050D01*
X85270497Y-55582554D01*
X85270499Y-55582555D01*
X85281258Y-55588037D01*
X85298114Y-55598365D01*
X85315911Y-55611296D01*
X85336832Y-55618094D01*
X85355092Y-55625658D01*
X85365859Y-55631144D01*
X85365863Y-55631145D01*
X85374696Y-55635646D01*
X85384487Y-55637197D01*
X85384488Y-55637197D01*
X85396422Y-55639087D01*
X85415647Y-55643703D01*
X85427132Y-55647435D01*
X85427136Y-55647436D01*
X85436567Y-55650500D01*
X89912286Y-55650500D01*
X89980407Y-55670502D01*
X90001381Y-55687404D01*
X90589820Y-56275842D01*
X90679528Y-56365550D01*
X90688364Y-56370052D01*
X90688365Y-56370053D01*
X90699129Y-56375538D01*
X90715986Y-56385868D01*
X90733780Y-56398796D01*
X90754700Y-56405593D01*
X90772963Y-56413158D01*
X90783731Y-56418645D01*
X90783735Y-56418646D01*
X90792566Y-56423146D01*
X90802355Y-56424697D01*
X90802363Y-56424699D01*
X90814297Y-56426589D01*
X90833517Y-56431203D01*
X90845003Y-56434935D01*
X90845010Y-56434936D01*
X90854437Y-56437999D01*
X90886347Y-56437999D01*
X90886351Y-56438000D01*
X92641320Y-56438000D01*
X92709441Y-56458002D01*
X92755934Y-56511658D01*
X92767320Y-56564000D01*
X92767320Y-57314184D01*
X92765098Y-57314184D01*
X92765097Y-57359501D01*
X92726712Y-57419226D01*
X92662131Y-57448718D01*
X92644202Y-57450000D01*
X72355973Y-57450000D01*
X72287852Y-57429998D01*
X72241359Y-57376342D01*
X72229973Y-57324000D01*
X72229973Y-56564000D01*
X72249975Y-56495879D01*
X72303631Y-56449386D01*
X72355973Y-56438000D01*
X73775933Y-56438000D01*
X73785364Y-56434936D01*
X73785368Y-56434935D01*
X73796853Y-56431203D01*
X73816078Y-56426587D01*
X73828012Y-56424697D01*
X73828013Y-56424697D01*
X73837804Y-56423146D01*
X73846637Y-56418645D01*
X73846641Y-56418644D01*
X73857406Y-56413159D01*
X73875666Y-56405595D01*
X73896590Y-56398796D01*
X73914393Y-56385861D01*
X73931245Y-56375535D01*
X73942002Y-56370054D01*
X73950842Y-56365550D01*
X73973405Y-56342987D01*
X73973409Y-56342984D01*
X74878988Y-55437405D01*
X74941300Y-55403379D01*
X74968083Y-55400500D01*
X77313433Y-55400500D01*
X77322864Y-55397436D01*
X77322868Y-55397435D01*
X77334353Y-55393703D01*
X77353578Y-55389087D01*
X77365512Y-55387197D01*
X77365513Y-55387197D01*
X77375304Y-55385646D01*
X77384137Y-55381145D01*
X77384141Y-55381144D01*
X77394906Y-55375659D01*
X77413166Y-55368095D01*
X77434090Y-55361296D01*
X77451893Y-55348361D01*
X77468745Y-55338035D01*
X77479502Y-55332554D01*
X77488342Y-55328050D01*
X77510905Y-55305487D01*
X77510909Y-55305484D01*
X80265484Y-52550909D01*
X80265487Y-52550905D01*
X80288050Y-52528342D01*
X80292555Y-52519501D01*
X80298037Y-52508742D01*
X80308365Y-52491887D01*
X80315467Y-52482112D01*
X80321296Y-52474089D01*
X80328094Y-52453168D01*
X80335658Y-52434908D01*
X80341144Y-52424141D01*
X80341145Y-52424137D01*
X80345646Y-52415304D01*
X80349087Y-52393578D01*
X80353703Y-52374353D01*
X80357435Y-52362868D01*
X80357436Y-52362864D01*
X80360500Y-52353433D01*
X80360500Y-48542707D01*
X80380502Y-48474586D01*
X80430562Y-48431621D01*
X80429955Y-48430537D01*
X80609395Y-48330046D01*
X80609399Y-48330043D01*
X80614442Y-48327219D01*
X80777012Y-48192012D01*
X80912219Y-48029442D01*
X80915043Y-48024399D01*
X80915046Y-48024395D01*
X81012713Y-47849998D01*
X81012714Y-47849996D01*
X81015537Y-47844955D01*
X81017393Y-47839488D01*
X81017395Y-47839483D01*
X81073723Y-47673544D01*
X81083504Y-47644730D01*
X81084333Y-47639015D01*
X81105090Y-47495860D01*
X81134660Y-47431315D01*
X81194432Y-47393003D01*
X81265429Y-47393087D01*
G37*
%TD.AperFunction*%
%TA.AperFunction,Conductor*%
G36*
X78725429Y-47393087D02*
G01*
X78785109Y-47431542D01*
X78814525Y-47496158D01*
X78815515Y-47505695D01*
X78818796Y-47555749D01*
X78820217Y-47561345D01*
X78820218Y-47561350D01*
X78842000Y-47647115D01*
X78870845Y-47760690D01*
X78873262Y-47765933D01*
X78907169Y-47839483D01*
X78959369Y-47952714D01*
X79081405Y-48125391D01*
X79085539Y-48129418D01*
X79216865Y-48257350D01*
X79232865Y-48272937D01*
X79237661Y-48276142D01*
X79237664Y-48276144D01*
X79337129Y-48342604D01*
X79408677Y-48390411D01*
X79413980Y-48392689D01*
X79413985Y-48392692D01*
X79483237Y-48422444D01*
X79537930Y-48467712D01*
X79559500Y-48538212D01*
X79559500Y-52071917D01*
X79539498Y-52140038D01*
X79522595Y-52161012D01*
X77121012Y-54562595D01*
X77058700Y-54596621D01*
X77031917Y-54599500D01*
X74686567Y-54599500D01*
X74677135Y-54602565D01*
X74677133Y-54602565D01*
X74665648Y-54606297D01*
X74646422Y-54610913D01*
X74624696Y-54614354D01*
X74615861Y-54618856D01*
X74615860Y-54618856D01*
X74605097Y-54624340D01*
X74586836Y-54631904D01*
X74565911Y-54638703D01*
X74557887Y-54644533D01*
X74548113Y-54651634D01*
X74531257Y-54661963D01*
X74520493Y-54667448D01*
X74520492Y-54667449D01*
X74511658Y-54671950D01*
X74489095Y-54694513D01*
X74489091Y-54694516D01*
X73583512Y-55600095D01*
X73521200Y-55634121D01*
X73494417Y-55637000D01*
X72355973Y-55637000D01*
X72287852Y-55616998D01*
X72241359Y-55563342D01*
X72229973Y-55511000D01*
X72229973Y-51739000D01*
X72249975Y-51670879D01*
X72303631Y-51624386D01*
X72355973Y-51613000D01*
X72840192Y-51613000D01*
X72849623Y-51609936D01*
X72849627Y-51609935D01*
X72861112Y-51606203D01*
X72880337Y-51601587D01*
X72892271Y-51599697D01*
X72892272Y-51599697D01*
X72902063Y-51598146D01*
X72910896Y-51593645D01*
X72910900Y-51593644D01*
X72921665Y-51588159D01*
X72939925Y-51580595D01*
X72960849Y-51573796D01*
X72978652Y-51560861D01*
X72995504Y-51550535D01*
X73006261Y-51545054D01*
X73015101Y-51540550D01*
X73037664Y-51517987D01*
X73037668Y-51517984D01*
X75185484Y-49370168D01*
X75185487Y-49370164D01*
X75208050Y-49347601D01*
X75218035Y-49328004D01*
X75228361Y-49311152D01*
X75241296Y-49293349D01*
X75248095Y-49272425D01*
X75255659Y-49254165D01*
X75261144Y-49243400D01*
X75261145Y-49243396D01*
X75265646Y-49234563D01*
X75269087Y-49212837D01*
X75273703Y-49193612D01*
X75277435Y-49182127D01*
X75277436Y-49182123D01*
X75280500Y-49172692D01*
X75280500Y-48542707D01*
X75300502Y-48474586D01*
X75350562Y-48431621D01*
X75349955Y-48430537D01*
X75529395Y-48330046D01*
X75529399Y-48330043D01*
X75534442Y-48327219D01*
X75697012Y-48192012D01*
X75832219Y-48029442D01*
X75835043Y-48024399D01*
X75835046Y-48024395D01*
X75932713Y-47849998D01*
X75932714Y-47849996D01*
X75935537Y-47844955D01*
X75937393Y-47839488D01*
X75937395Y-47839483D01*
X75993723Y-47673544D01*
X76003504Y-47644730D01*
X76004333Y-47639015D01*
X76025090Y-47495860D01*
X76054660Y-47431315D01*
X76114432Y-47393003D01*
X76185429Y-47393087D01*
X76245109Y-47431542D01*
X76274525Y-47496158D01*
X76275515Y-47505695D01*
X76278796Y-47555749D01*
X76280217Y-47561345D01*
X76280218Y-47561350D01*
X76302000Y-47647115D01*
X76330845Y-47760690D01*
X76333262Y-47765933D01*
X76367169Y-47839483D01*
X76419369Y-47952714D01*
X76541405Y-48125391D01*
X76545539Y-48129418D01*
X76676865Y-48257350D01*
X76692865Y-48272937D01*
X76697661Y-48276142D01*
X76697664Y-48276144D01*
X76797129Y-48342604D01*
X76868677Y-48390411D01*
X76873985Y-48392692D01*
X76873986Y-48392692D01*
X77057650Y-48471600D01*
X77057653Y-48471601D01*
X77062953Y-48473878D01*
X77068582Y-48475152D01*
X77068583Y-48475152D01*
X77263550Y-48519269D01*
X77263553Y-48519269D01*
X77269186Y-48520544D01*
X77274957Y-48520771D01*
X77274959Y-48520771D01*
X77336989Y-48523208D01*
X77480470Y-48528846D01*
X77486179Y-48528018D01*
X77486183Y-48528018D01*
X77684015Y-48499333D01*
X77684019Y-48499332D01*
X77689730Y-48498504D01*
X77758523Y-48475152D01*
X77884483Y-48432395D01*
X77884488Y-48432393D01*
X77889955Y-48430537D01*
X77904406Y-48422444D01*
X78069395Y-48330046D01*
X78069399Y-48330043D01*
X78074442Y-48327219D01*
X78237012Y-48192012D01*
X78372219Y-48029442D01*
X78375043Y-48024399D01*
X78375046Y-48024395D01*
X78472713Y-47849998D01*
X78472714Y-47849996D01*
X78475537Y-47844955D01*
X78477393Y-47839488D01*
X78477395Y-47839483D01*
X78533723Y-47673544D01*
X78543504Y-47644730D01*
X78544333Y-47639015D01*
X78565090Y-47495860D01*
X78594660Y-47431315D01*
X78654432Y-47393003D01*
X78725429Y-47393087D01*
G37*
%TD.AperFunction*%
%TA.AperFunction,Conductor*%
G36*
X94142121Y-28070002D02*
G01*
X94188614Y-28123658D01*
X94200000Y-28176000D01*
X94200000Y-30912729D01*
X94198086Y-30934608D01*
X94195372Y-30950000D01*
X94197286Y-30960855D01*
X94197286Y-30961223D01*
X94198114Y-30966960D01*
X94206019Y-31037119D01*
X94211341Y-31084357D01*
X94255998Y-31211978D01*
X94259761Y-31217966D01*
X94259762Y-31217969D01*
X94296075Y-31275761D01*
X94327932Y-31326461D01*
X94423539Y-31422068D01*
X94429533Y-31425834D01*
X94429534Y-31425835D01*
X94532031Y-31490238D01*
X94532034Y-31490239D01*
X94538022Y-31494002D01*
X94665643Y-31538659D01*
X94672668Y-31539451D01*
X94672670Y-31539451D01*
X94725281Y-31545379D01*
X94734993Y-31547100D01*
X94740720Y-31549385D01*
X94746993Y-31550000D01*
X94759223Y-31550000D01*
X94773330Y-31550792D01*
X94783040Y-31551886D01*
X94788777Y-31552714D01*
X94789145Y-31552714D01*
X94800000Y-31554628D01*
X94815392Y-31551914D01*
X94837271Y-31550000D01*
X95074000Y-31550000D01*
X95142121Y-31570002D01*
X95188614Y-31623658D01*
X95200000Y-31676000D01*
X95200000Y-46405820D01*
X95179998Y-46473941D01*
X95126342Y-46520434D01*
X95056068Y-46530538D01*
X94991488Y-46501044D01*
X94968208Y-46474260D01*
X94920302Y-46400208D01*
X94920300Y-46400205D01*
X94917492Y-46395865D01*
X94911325Y-46389087D01*
X94765977Y-46229353D01*
X94765976Y-46229352D01*
X94762499Y-46225531D01*
X94758448Y-46222332D01*
X94758444Y-46222328D01*
X94585822Y-46085999D01*
X94585817Y-46085995D01*
X94581768Y-46082798D01*
X94577252Y-46080305D01*
X94577249Y-46080303D01*
X94384676Y-45973997D01*
X94384672Y-45973995D01*
X94380152Y-45971500D01*
X94375283Y-45969776D01*
X94375279Y-45969774D01*
X94167940Y-45896351D01*
X94167936Y-45896350D01*
X94163065Y-45894625D01*
X94157972Y-45893718D01*
X94157969Y-45893717D01*
X94043812Y-45873383D01*
X93936337Y-45854239D01*
X93849889Y-45853183D01*
X93711228Y-45851488D01*
X93711226Y-45851488D01*
X93706058Y-45851425D01*
X93478412Y-45886260D01*
X93259511Y-45957808D01*
X93254919Y-45960198D01*
X93254920Y-45960198D01*
X93079896Y-46051310D01*
X93055236Y-46064147D01*
X92871071Y-46202421D01*
X92711964Y-46368918D01*
X92709053Y-46373186D01*
X92709049Y-46373191D01*
X92696192Y-46392039D01*
X92582186Y-46559165D01*
X92580010Y-46563854D01*
X92580006Y-46563860D01*
X92487402Y-46763359D01*
X92485223Y-46768054D01*
X92481833Y-46780279D01*
X92431734Y-46960931D01*
X92423679Y-46989975D01*
X92423130Y-46995112D01*
X92400000Y-47211538D01*
X92399206Y-47218967D01*
X92399503Y-47224119D01*
X92399503Y-47224123D01*
X92409241Y-47393003D01*
X92412463Y-47448882D01*
X92413600Y-47453928D01*
X92413601Y-47453934D01*
X92437809Y-47561350D01*
X92463093Y-47673544D01*
X92465035Y-47678326D01*
X92465036Y-47678330D01*
X92547792Y-47882133D01*
X92549736Y-47886920D01*
X92607563Y-47981285D01*
X92667364Y-48078870D01*
X92670066Y-48083280D01*
X92820850Y-48257350D01*
X92998040Y-48404456D01*
X93196877Y-48520647D01*
X93201702Y-48522489D01*
X93201703Y-48522490D01*
X93217753Y-48528619D01*
X93412021Y-48602803D01*
X93417087Y-48603834D01*
X93417088Y-48603834D01*
X93517784Y-48624320D01*
X93637694Y-48648716D01*
X93767439Y-48653474D01*
X93862672Y-48656966D01*
X93862676Y-48656966D01*
X93867836Y-48657155D01*
X93872956Y-48656499D01*
X93872958Y-48656499D01*
X93942359Y-48647609D01*
X94096265Y-48627893D01*
X94101213Y-48626408D01*
X94101220Y-48626407D01*
X94311898Y-48563200D01*
X94311897Y-48563200D01*
X94316848Y-48561715D01*
X94523661Y-48460398D01*
X94711149Y-48326665D01*
X94874277Y-48164105D01*
X94918844Y-48102084D01*
X94971677Y-48028558D01*
X95027672Y-47984910D01*
X95098375Y-47978464D01*
X95161340Y-48011267D01*
X95196574Y-48072903D01*
X95200000Y-48102084D01*
X95200000Y-50517282D01*
X95179998Y-50585403D01*
X95126342Y-50631896D01*
X95056068Y-50642000D01*
X95047219Y-50640403D01*
X95037029Y-50638186D01*
X95037029Y-50635240D01*
X94435222Y-50635240D01*
X94367101Y-50615238D01*
X94359042Y-50609603D01*
X94297937Y-50563222D01*
X94263548Y-50537119D01*
X94131273Y-50484747D01*
X94123236Y-50483774D01*
X94123234Y-50483774D01*
X94092550Y-50480061D01*
X94046594Y-50474500D01*
X93453406Y-50474500D01*
X93407450Y-50480061D01*
X93376766Y-50483774D01*
X93376764Y-50483774D01*
X93368727Y-50484747D01*
X93236452Y-50537119D01*
X93202063Y-50563222D01*
X93140958Y-50609603D01*
X93074604Y-50634856D01*
X93064778Y-50635240D01*
X92767320Y-50635240D01*
X92767320Y-50686000D01*
X92747318Y-50754121D01*
X92693662Y-50800614D01*
X92641320Y-50812000D01*
X85680583Y-50812000D01*
X85612462Y-50791998D01*
X85591488Y-50775095D01*
X85234520Y-50418127D01*
X85200494Y-50355815D01*
X85198872Y-50311278D01*
X85204909Y-50268860D01*
X85205490Y-50264778D01*
X85205645Y-50250000D01*
X85203840Y-50235080D01*
X85186188Y-50089220D01*
X85185276Y-50081680D01*
X85125345Y-49923077D01*
X85029312Y-49783349D01*
X85017514Y-49772837D01*
X84908392Y-49675612D01*
X84908388Y-49675610D01*
X84902721Y-49670560D01*
X84752881Y-49591224D01*
X84588441Y-49549919D01*
X84580843Y-49549879D01*
X84580841Y-49549879D01*
X84503668Y-49549475D01*
X84418895Y-49549031D01*
X84411508Y-49550805D01*
X84411504Y-49550805D01*
X84268162Y-49585220D01*
X84254032Y-49588612D01*
X84247288Y-49592093D01*
X84247285Y-49592094D01*
X84242089Y-49594776D01*
X84103369Y-49666375D01*
X83975604Y-49777831D01*
X83878113Y-49916547D01*
X83816524Y-50074513D01*
X83794394Y-50242611D01*
X83812999Y-50411135D01*
X83836354Y-50474956D01*
X83857947Y-50533959D01*
X83871266Y-50570356D01*
X83965830Y-50711083D01*
X83971442Y-50716190D01*
X83971445Y-50716193D01*
X84085612Y-50820077D01*
X84085616Y-50820080D01*
X84091233Y-50825191D01*
X84097906Y-50828814D01*
X84097910Y-50828817D01*
X84233558Y-50902467D01*
X84233560Y-50902468D01*
X84240235Y-50906092D01*
X84247584Y-50908020D01*
X84396883Y-50947188D01*
X84396885Y-50947188D01*
X84404233Y-50949116D01*
X84490609Y-50950473D01*
X84566161Y-50951660D01*
X84566164Y-50951660D01*
X84573760Y-50951779D01*
X84573753Y-50952252D01*
X84638765Y-50964142D01*
X84671191Y-50987584D01*
X85201591Y-51517984D01*
X85201595Y-51517987D01*
X85224158Y-51540550D01*
X85232992Y-51545051D01*
X85232993Y-51545052D01*
X85243757Y-51550537D01*
X85260613Y-51560866D01*
X85278411Y-51573797D01*
X85299336Y-51580596D01*
X85317597Y-51588160D01*
X85328360Y-51593644D01*
X85337196Y-51598146D01*
X85346989Y-51599697D01*
X85358922Y-51601587D01*
X85378148Y-51606203D01*
X85389633Y-51609935D01*
X85389635Y-51609935D01*
X85399067Y-51613000D01*
X92641320Y-51613000D01*
X92709441Y-51633002D01*
X92755934Y-51686658D01*
X92767320Y-51739000D01*
X92767320Y-53788812D01*
X92747318Y-53856933D01*
X92693662Y-53903426D01*
X92623388Y-53913530D01*
X92558808Y-53884036D01*
X92532201Y-53851812D01*
X92466310Y-53737686D01*
X92463009Y-53731968D01*
X92339724Y-53595046D01*
X92334382Y-53591165D01*
X92334380Y-53591163D01*
X92196006Y-53490629D01*
X92196005Y-53490628D01*
X92190664Y-53486748D01*
X92184636Y-53484064D01*
X92184634Y-53484063D01*
X92028376Y-53414492D01*
X92028374Y-53414491D01*
X92022345Y-53411807D01*
X91932235Y-53392654D01*
X91848581Y-53374872D01*
X91848577Y-53374872D01*
X91842124Y-53373500D01*
X91657876Y-53373500D01*
X91651423Y-53374872D01*
X91651419Y-53374872D01*
X91567765Y-53392654D01*
X91477655Y-53411807D01*
X91471626Y-53414491D01*
X91471624Y-53414492D01*
X91315366Y-53484063D01*
X91315364Y-53484064D01*
X91309336Y-53486748D01*
X91303995Y-53490628D01*
X91303994Y-53490629D01*
X91165620Y-53591163D01*
X91165618Y-53591165D01*
X91160276Y-53595046D01*
X91036991Y-53731968D01*
X90944867Y-53891532D01*
X90887931Y-54066762D01*
X90868672Y-54250000D01*
X90887931Y-54433238D01*
X90944867Y-54608468D01*
X91036991Y-54768032D01*
X91041409Y-54772939D01*
X91041410Y-54772940D01*
X91145644Y-54888704D01*
X91160276Y-54904954D01*
X91165618Y-54908835D01*
X91165620Y-54908837D01*
X91303994Y-55009371D01*
X91309336Y-55013252D01*
X91315364Y-55015936D01*
X91315366Y-55015937D01*
X91471624Y-55085508D01*
X91477655Y-55088193D01*
X91567766Y-55107347D01*
X91651419Y-55125128D01*
X91651423Y-55125128D01*
X91657876Y-55126500D01*
X91842124Y-55126500D01*
X91848577Y-55125128D01*
X91848581Y-55125128D01*
X91932234Y-55107347D01*
X92022345Y-55088193D01*
X92028376Y-55085508D01*
X92184634Y-55015937D01*
X92184636Y-55015936D01*
X92190664Y-55013252D01*
X92196006Y-55009371D01*
X92334380Y-54908837D01*
X92334382Y-54908835D01*
X92339724Y-54904954D01*
X92354356Y-54888704D01*
X92458590Y-54772940D01*
X92458591Y-54772939D01*
X92463009Y-54768032D01*
X92532201Y-54648188D01*
X92583583Y-54599195D01*
X92653297Y-54585759D01*
X92719208Y-54612145D01*
X92760390Y-54669977D01*
X92767320Y-54711188D01*
X92767320Y-55511000D01*
X92747318Y-55579121D01*
X92693662Y-55625614D01*
X92641320Y-55637000D01*
X91135953Y-55637000D01*
X91067832Y-55616998D01*
X91046857Y-55600095D01*
X90391279Y-54944516D01*
X90391265Y-54944503D01*
X90368712Y-54921950D01*
X90349116Y-54911965D01*
X90332263Y-54901639D01*
X90314460Y-54888704D01*
X90293536Y-54881905D01*
X90275276Y-54874341D01*
X90264511Y-54868856D01*
X90264507Y-54868855D01*
X90255674Y-54864354D01*
X90245883Y-54862803D01*
X90245882Y-54862803D01*
X90233948Y-54860913D01*
X90214723Y-54856297D01*
X90203238Y-54852565D01*
X90203234Y-54852564D01*
X90193803Y-54849500D01*
X85718083Y-54849500D01*
X85649962Y-54829498D01*
X85628988Y-54812595D01*
X82937405Y-52121012D01*
X82903379Y-52058700D01*
X82900500Y-52031917D01*
X82900500Y-48542707D01*
X82920502Y-48474586D01*
X82970562Y-48431621D01*
X82969955Y-48430537D01*
X83149395Y-48330046D01*
X83149399Y-48330043D01*
X83154442Y-48327219D01*
X83317012Y-48192012D01*
X83452219Y-48029442D01*
X83455043Y-48024399D01*
X83455046Y-48024395D01*
X83552713Y-47849998D01*
X83552714Y-47849996D01*
X83555537Y-47844955D01*
X83557393Y-47839488D01*
X83557395Y-47839483D01*
X83613723Y-47673544D01*
X83623504Y-47644730D01*
X83624333Y-47639015D01*
X83645090Y-47495860D01*
X83674660Y-47431315D01*
X83734432Y-47393003D01*
X83805429Y-47393087D01*
X83865109Y-47431542D01*
X83894525Y-47496158D01*
X83895515Y-47505695D01*
X83898796Y-47555749D01*
X83900217Y-47561345D01*
X83900218Y-47561350D01*
X83922000Y-47647115D01*
X83950845Y-47760690D01*
X83953262Y-47765933D01*
X83987169Y-47839483D01*
X84039369Y-47952714D01*
X84161405Y-48125391D01*
X84165539Y-48129418D01*
X84296865Y-48257350D01*
X84312865Y-48272937D01*
X84317661Y-48276142D01*
X84317664Y-48276144D01*
X84417129Y-48342604D01*
X84488677Y-48390411D01*
X84493985Y-48392692D01*
X84493986Y-48392692D01*
X84677650Y-48471600D01*
X84677653Y-48471601D01*
X84682953Y-48473878D01*
X84688582Y-48475152D01*
X84688583Y-48475152D01*
X84883550Y-48519269D01*
X84883553Y-48519269D01*
X84889186Y-48520544D01*
X84894957Y-48520771D01*
X84894959Y-48520771D01*
X84956989Y-48523208D01*
X85100470Y-48528846D01*
X85106179Y-48528018D01*
X85106183Y-48528018D01*
X85304015Y-48499333D01*
X85304019Y-48499332D01*
X85309730Y-48498504D01*
X85378523Y-48475152D01*
X85504483Y-48432395D01*
X85504488Y-48432393D01*
X85509955Y-48430537D01*
X85524406Y-48422444D01*
X85689395Y-48330046D01*
X85689399Y-48330043D01*
X85694442Y-48327219D01*
X85857012Y-48192012D01*
X85992219Y-48029442D01*
X85995043Y-48024399D01*
X85995046Y-48024395D01*
X86092713Y-47849998D01*
X86092714Y-47849996D01*
X86095537Y-47844955D01*
X86097393Y-47839488D01*
X86097395Y-47839483D01*
X86153723Y-47673544D01*
X86163504Y-47644730D01*
X86164333Y-47639015D01*
X86185090Y-47495860D01*
X86214660Y-47431315D01*
X86274432Y-47393003D01*
X86345429Y-47393087D01*
X86405109Y-47431542D01*
X86434525Y-47496158D01*
X86435515Y-47505695D01*
X86438796Y-47555749D01*
X86440217Y-47561345D01*
X86440218Y-47561350D01*
X86462000Y-47647115D01*
X86490845Y-47760690D01*
X86493262Y-47765933D01*
X86527169Y-47839483D01*
X86579369Y-47952714D01*
X86701405Y-48125391D01*
X86705539Y-48129418D01*
X86836865Y-48257350D01*
X86852865Y-48272937D01*
X86857661Y-48276142D01*
X86857664Y-48276144D01*
X86957129Y-48342604D01*
X87028677Y-48390411D01*
X87033985Y-48392692D01*
X87033986Y-48392692D01*
X87217650Y-48471600D01*
X87217653Y-48471601D01*
X87222953Y-48473878D01*
X87228582Y-48475152D01*
X87228583Y-48475152D01*
X87423550Y-48519269D01*
X87423553Y-48519269D01*
X87429186Y-48520544D01*
X87434957Y-48520771D01*
X87434959Y-48520771D01*
X87496989Y-48523208D01*
X87640470Y-48528846D01*
X87646179Y-48528018D01*
X87646183Y-48528018D01*
X87844015Y-48499333D01*
X87844019Y-48499332D01*
X87849730Y-48498504D01*
X87918523Y-48475152D01*
X88044483Y-48432395D01*
X88044488Y-48432393D01*
X88049955Y-48430537D01*
X88064406Y-48422444D01*
X88229395Y-48330046D01*
X88229399Y-48330043D01*
X88234442Y-48327219D01*
X88397012Y-48192012D01*
X88423712Y-48159908D01*
X88528526Y-48033883D01*
X88528528Y-48033879D01*
X88532219Y-48029442D01*
X88533141Y-48027795D01*
X88587230Y-47983782D01*
X88657783Y-47975857D01*
X88721421Y-48007334D01*
X88757938Y-48068220D01*
X88762001Y-48099960D01*
X88762001Y-48269669D01*
X88762371Y-48276490D01*
X88767895Y-48327352D01*
X88771521Y-48342604D01*
X88816676Y-48463054D01*
X88825214Y-48478649D01*
X88901715Y-48580724D01*
X88914276Y-48593285D01*
X89016351Y-48669786D01*
X89031946Y-48678324D01*
X89152394Y-48723478D01*
X89167649Y-48727105D01*
X89218514Y-48732631D01*
X89225328Y-48733000D01*
X89847885Y-48733000D01*
X89863124Y-48728525D01*
X89864329Y-48727135D01*
X89866000Y-48719452D01*
X89866000Y-47642548D01*
X90374000Y-47642548D01*
X90374000Y-48714884D01*
X90378475Y-48730123D01*
X90379865Y-48731328D01*
X90387548Y-48732999D01*
X91014669Y-48732999D01*
X91021490Y-48732629D01*
X91072352Y-48727105D01*
X91087604Y-48723479D01*
X91208054Y-48678324D01*
X91223649Y-48669786D01*
X91325724Y-48593285D01*
X91338285Y-48580724D01*
X91414786Y-48478649D01*
X91423324Y-48463054D01*
X91468478Y-48342606D01*
X91472105Y-48327351D01*
X91477631Y-48276486D01*
X91478000Y-48269672D01*
X91478000Y-47647115D01*
X91473525Y-47631876D01*
X91472135Y-47630671D01*
X91464452Y-47629000D01*
X90392115Y-47629000D01*
X90376876Y-47633475D01*
X90375671Y-47634865D01*
X90374000Y-47642548D01*
X89866000Y-47642548D01*
X89866000Y-47247000D01*
X89886002Y-47178879D01*
X89939658Y-47132386D01*
X89992000Y-47121000D01*
X91459884Y-47121000D01*
X91475123Y-47116525D01*
X91476328Y-47115135D01*
X91477999Y-47107452D01*
X91477999Y-46480331D01*
X91477629Y-46473510D01*
X91472105Y-46422648D01*
X91468479Y-46407396D01*
X91423324Y-46286946D01*
X91414786Y-46271351D01*
X91400856Y-46252765D01*
X91376007Y-46186259D01*
X91391059Y-46116876D01*
X91441233Y-46066646D01*
X91506957Y-46051310D01*
X91524759Y-46052056D01*
X91552294Y-46053210D01*
X91563848Y-46050500D01*
X91594662Y-46043273D01*
X91606333Y-46041110D01*
X91625590Y-46038472D01*
X91649432Y-46035206D01*
X91657925Y-46031531D01*
X91663230Y-46029235D01*
X91684499Y-46022201D01*
X91690775Y-46020729D01*
X91699136Y-46018768D01*
X91706661Y-46014631D01*
X91706664Y-46014630D01*
X91737268Y-45997805D01*
X91747913Y-45992589D01*
X91787855Y-45975305D01*
X91799541Y-45965842D01*
X91818126Y-45953354D01*
X91825518Y-45949290D01*
X91831308Y-45946107D01*
X91839422Y-45939103D01*
X91863958Y-45914567D01*
X91873759Y-45905742D01*
X91898391Y-45885795D01*
X91898393Y-45885793D01*
X91905070Y-45880386D01*
X91915967Y-45865052D01*
X91929579Y-45848945D01*
X92178643Y-45599881D01*
X92182452Y-45596228D01*
X92190102Y-45589193D01*
X92228156Y-45554201D01*
X92251099Y-45517198D01*
X92257800Y-45507448D01*
X92284112Y-45472783D01*
X92289646Y-45458804D01*
X92299707Y-45438801D01*
X92307635Y-45426014D01*
X92314314Y-45403027D01*
X92319775Y-45384228D01*
X92323621Y-45372995D01*
X92336473Y-45340535D01*
X92339636Y-45332547D01*
X92341208Y-45317592D01*
X92345520Y-45295617D01*
X92349715Y-45281175D01*
X92350500Y-45270485D01*
X92350500Y-45235783D01*
X92351190Y-45222613D01*
X92354503Y-45191088D01*
X92355401Y-45182546D01*
X92353969Y-45174081D01*
X92353969Y-45174072D01*
X92352265Y-45164000D01*
X92350500Y-45142987D01*
X92350500Y-44826500D01*
X92370502Y-44758379D01*
X92424158Y-44711886D01*
X92476500Y-44700500D01*
X92594646Y-44700500D01*
X92598350Y-44700059D01*
X92598353Y-44700059D01*
X92607023Y-44699027D01*
X92620846Y-44697382D01*
X92670986Y-44675111D01*
X92712518Y-44656663D01*
X92723153Y-44651939D01*
X92734435Y-44640638D01*
X92776633Y-44598366D01*
X92802241Y-44572713D01*
X92812884Y-44548641D01*
X92843675Y-44478992D01*
X92847506Y-44470327D01*
X92850500Y-44444646D01*
X92850500Y-43180214D01*
X92870502Y-43112093D01*
X92887405Y-43091119D01*
X93378642Y-42599882D01*
X93382451Y-42596229D01*
X93406602Y-42574021D01*
X93428156Y-42554201D01*
X93440482Y-42534322D01*
X93451087Y-42517217D01*
X93457801Y-42507447D01*
X93484112Y-42472784D01*
X93489646Y-42458807D01*
X93499709Y-42438798D01*
X93503111Y-42433312D01*
X93503113Y-42433308D01*
X93507635Y-42426014D01*
X93510029Y-42417772D01*
X93510031Y-42417769D01*
X93519779Y-42384216D01*
X93523618Y-42373003D01*
X93539635Y-42332547D01*
X93541206Y-42317598D01*
X93545519Y-42295615D01*
X93547873Y-42287514D01*
X93549715Y-42281175D01*
X93550500Y-42270485D01*
X93550500Y-42235781D01*
X93551190Y-42222610D01*
X93554503Y-42191088D01*
X93555401Y-42182546D01*
X93553969Y-42174081D01*
X93553969Y-42174072D01*
X93552265Y-42164000D01*
X93550500Y-42142987D01*
X93550500Y-36514993D01*
X93550611Y-36509717D01*
X93552850Y-36456291D01*
X93553210Y-36447706D01*
X93550723Y-36437101D01*
X93543273Y-36405338D01*
X93541110Y-36393667D01*
X93536372Y-36359081D01*
X93535206Y-36350568D01*
X93529235Y-36336770D01*
X93522201Y-36315501D01*
X93520729Y-36309225D01*
X93518768Y-36300864D01*
X93514631Y-36293339D01*
X93514630Y-36293336D01*
X93497805Y-36262732D01*
X93492589Y-36252087D01*
X93475305Y-36212145D01*
X93465842Y-36200459D01*
X93453354Y-36181874D01*
X93449290Y-36174482D01*
X93446107Y-36168692D01*
X93439103Y-36160578D01*
X93414567Y-36136042D01*
X93405742Y-36126241D01*
X93385794Y-36101608D01*
X93385793Y-36101607D01*
X93380386Y-36094930D01*
X93373388Y-36089957D01*
X93373383Y-36089952D01*
X93365052Y-36084032D01*
X93348946Y-36070421D01*
X92149882Y-34871358D01*
X92146229Y-34867549D01*
X92110015Y-34828167D01*
X92104201Y-34821844D01*
X92067198Y-34798901D01*
X92057448Y-34792200D01*
X92022783Y-34765888D01*
X92008804Y-34760354D01*
X91988801Y-34750293D01*
X91976014Y-34742365D01*
X91967763Y-34739968D01*
X91967761Y-34739967D01*
X91934228Y-34730225D01*
X91922995Y-34726379D01*
X91882547Y-34710364D01*
X91874006Y-34709466D01*
X91874005Y-34709466D01*
X91867592Y-34708792D01*
X91845617Y-34704480D01*
X91831175Y-34700285D01*
X91823692Y-34699735D01*
X91822792Y-34699669D01*
X91822781Y-34699669D01*
X91820485Y-34699500D01*
X91785783Y-34699500D01*
X91772613Y-34698810D01*
X91762384Y-34697735D01*
X91732546Y-34694599D01*
X91724081Y-34696031D01*
X91724072Y-34696031D01*
X91714000Y-34697735D01*
X91692987Y-34699500D01*
X90848821Y-34699500D01*
X90780700Y-34679498D01*
X90734207Y-34625842D01*
X90724103Y-34555568D01*
X90735125Y-34523180D01*
X90734114Y-34522779D01*
X90739646Y-34508804D01*
X90749707Y-34488801D01*
X90757635Y-34476014D01*
X90769775Y-34434228D01*
X90773621Y-34422995D01*
X90786474Y-34390533D01*
X90789636Y-34382547D01*
X90791137Y-34368266D01*
X90818150Y-34302609D01*
X90870063Y-34264284D01*
X90967953Y-34225527D01*
X90967955Y-34225526D01*
X90975936Y-34222366D01*
X91094711Y-34132211D01*
X91118918Y-34100319D01*
X91176036Y-34058153D01*
X91219280Y-34050500D01*
X92022507Y-34050500D01*
X92027784Y-34050611D01*
X92089794Y-34053210D01*
X92103996Y-34049879D01*
X92132162Y-34043273D01*
X92143833Y-34041110D01*
X92158729Y-34039069D01*
X92186932Y-34035206D01*
X92194817Y-34031794D01*
X92200737Y-34030141D01*
X92234620Y-34025500D01*
X92546594Y-34025500D01*
X92592550Y-34019939D01*
X92623234Y-34016226D01*
X92623236Y-34016226D01*
X92631273Y-34015253D01*
X92763548Y-33962881D01*
X92876867Y-33876867D01*
X92962881Y-33763548D01*
X93015253Y-33631273D01*
X93017458Y-33613056D01*
X93022486Y-33571501D01*
X93025500Y-33546594D01*
X93025500Y-33028406D01*
X93018493Y-32970502D01*
X93016226Y-32951766D01*
X93016226Y-32951764D01*
X93015253Y-32943727D01*
X92962881Y-32811452D01*
X92887554Y-32712212D01*
X92862301Y-32645859D01*
X92876929Y-32576386D01*
X92921614Y-32528888D01*
X92954520Y-32508525D01*
X92965915Y-32499494D01*
X93075298Y-32389920D01*
X93084310Y-32378509D01*
X93165553Y-32246709D01*
X93171697Y-32233532D01*
X93220579Y-32086157D01*
X93223445Y-32072790D01*
X93232614Y-31983300D01*
X93228525Y-31969376D01*
X93227135Y-31968171D01*
X93219452Y-31966500D01*
X92122000Y-31966500D01*
X92053879Y-31946498D01*
X92007386Y-31892842D01*
X91996000Y-31840500D01*
X91996000Y-30784886D01*
X91995376Y-30780548D01*
X92504000Y-30780548D01*
X92504000Y-31440385D01*
X92508475Y-31455624D01*
X92509865Y-31456829D01*
X92517548Y-31458500D01*
X93214885Y-31458500D01*
X93230124Y-31454025D01*
X93231329Y-31452635D01*
X93232842Y-31445679D01*
X93232663Y-31442218D01*
X93223196Y-31350979D01*
X93220303Y-31337583D01*
X93171170Y-31190313D01*
X93164996Y-31177134D01*
X93083530Y-31045486D01*
X93074494Y-31034085D01*
X92964920Y-30924702D01*
X92953509Y-30915690D01*
X92821709Y-30834447D01*
X92808532Y-30828303D01*
X92661157Y-30779421D01*
X92647790Y-30776555D01*
X92557730Y-30767328D01*
X92551315Y-30767000D01*
X92522115Y-30767000D01*
X92506876Y-30771475D01*
X92505671Y-30772865D01*
X92504000Y-30780548D01*
X91995376Y-30780548D01*
X91990961Y-30749839D01*
X91990961Y-30641305D01*
X88499599Y-30641305D01*
X88499599Y-30848500D01*
X88479597Y-30916621D01*
X88425941Y-30963114D01*
X88373599Y-30974500D01*
X87953406Y-30974500D01*
X87907450Y-30980061D01*
X87876766Y-30983774D01*
X87876764Y-30983774D01*
X87868727Y-30984747D01*
X87736452Y-31037119D01*
X87623133Y-31123133D01*
X87537119Y-31236452D01*
X87484747Y-31368727D01*
X87474500Y-31453406D01*
X87474500Y-31657286D01*
X87454498Y-31725407D01*
X87437595Y-31746381D01*
X87290903Y-31893073D01*
X87228591Y-31927099D01*
X87157776Y-31922034D01*
X87142849Y-31915333D01*
X87067247Y-31875304D01*
X87002881Y-31841224D01*
X86838441Y-31799919D01*
X86830843Y-31799879D01*
X86830841Y-31799879D01*
X86753668Y-31799475D01*
X86668895Y-31799031D01*
X86661508Y-31800805D01*
X86661504Y-31800805D01*
X86518162Y-31835220D01*
X86504032Y-31838612D01*
X86497288Y-31842093D01*
X86497285Y-31842094D01*
X86382993Y-31901085D01*
X86353369Y-31916375D01*
X86347647Y-31921367D01*
X86347645Y-31921368D01*
X86280999Y-31979507D01*
X86243070Y-32012595D01*
X86236359Y-32018449D01*
X86171877Y-32048157D01*
X86153530Y-32049500D01*
X85488793Y-32049500D01*
X85420672Y-32029498D01*
X85399698Y-32012595D01*
X84192698Y-30805595D01*
X84158672Y-30743283D01*
X84163737Y-30672468D01*
X84206284Y-30615632D01*
X84272804Y-30590821D01*
X84281793Y-30590500D01*
X84484646Y-30590500D01*
X84488338Y-30590061D01*
X84492080Y-30589839D01*
X84492115Y-30590435D01*
X84508039Y-30590418D01*
X84508071Y-30589865D01*
X84511728Y-30590077D01*
X84515354Y-30590500D01*
X84587300Y-30590500D01*
X84655421Y-30610502D01*
X84688127Y-30640936D01*
X84691716Y-30645725D01*
X84704276Y-30658285D01*
X84806351Y-30734786D01*
X84821946Y-30743324D01*
X84942394Y-30788478D01*
X84957649Y-30792105D01*
X85008514Y-30797631D01*
X85015328Y-30798000D01*
X85041885Y-30798000D01*
X85057124Y-30793525D01*
X85058329Y-30792135D01*
X85060000Y-30784452D01*
X85060000Y-30642177D01*
X85080002Y-30574056D01*
X85109619Y-30543509D01*
X85113153Y-30541939D01*
X85192241Y-30462713D01*
X85198760Y-30447966D01*
X85244600Y-30393751D01*
X85312473Y-30372925D01*
X85380831Y-30392100D01*
X85427971Y-30445188D01*
X85440000Y-30498916D01*
X85440000Y-30779884D01*
X85444475Y-30795123D01*
X85445865Y-30796328D01*
X85453548Y-30797999D01*
X85484669Y-30797999D01*
X85491490Y-30797629D01*
X85542352Y-30792105D01*
X85557604Y-30788479D01*
X85678054Y-30743324D01*
X85693649Y-30734786D01*
X85795724Y-30658285D01*
X85808285Y-30645724D01*
X85884786Y-30543649D01*
X85893324Y-30528054D01*
X85938478Y-30407606D01*
X85942105Y-30392351D01*
X85947631Y-30341486D01*
X85948000Y-30334672D01*
X85948000Y-30176000D01*
X85968002Y-30107879D01*
X86021658Y-30061386D01*
X86074000Y-30050000D01*
X86862729Y-30050000D01*
X86884608Y-30051914D01*
X86900000Y-30054628D01*
X86910855Y-30052714D01*
X86911223Y-30052714D01*
X86916960Y-30051886D01*
X87027323Y-30039452D01*
X87027327Y-30039451D01*
X87034357Y-30038659D01*
X87161978Y-29994002D01*
X87167970Y-29990237D01*
X87174343Y-29987168D01*
X87175582Y-29989740D01*
X87231499Y-29973932D01*
X87274458Y-29981944D01*
X87350415Y-30010419D01*
X87365669Y-30014046D01*
X87416534Y-30019572D01*
X87423348Y-30019941D01*
X87945905Y-30019941D01*
X87961144Y-30015466D01*
X87962349Y-30014076D01*
X87964020Y-30006393D01*
X87964020Y-29029489D01*
X88472020Y-29029489D01*
X88472020Y-30001825D01*
X88476495Y-30017064D01*
X88477885Y-30018269D01*
X88485568Y-30019940D01*
X89012689Y-30019940D01*
X89019510Y-30019570D01*
X89070372Y-30014046D01*
X89085624Y-30010420D01*
X89206074Y-29965265D01*
X89221669Y-29956727D01*
X89323744Y-29880226D01*
X89336305Y-29867665D01*
X89412806Y-29765590D01*
X89421344Y-29749995D01*
X89466498Y-29629547D01*
X89470125Y-29614292D01*
X89475651Y-29563427D01*
X89476020Y-29556613D01*
X89476020Y-29034056D01*
X89471545Y-29018817D01*
X89470155Y-29017612D01*
X89462472Y-29015941D01*
X88490135Y-29015941D01*
X88474896Y-29020416D01*
X88473691Y-29021806D01*
X88472020Y-29029489D01*
X87964020Y-29029489D01*
X87964020Y-28633941D01*
X87984022Y-28565820D01*
X88037678Y-28519327D01*
X88090020Y-28507941D01*
X89457904Y-28507941D01*
X89473143Y-28503466D01*
X89474348Y-28502076D01*
X89476019Y-28494393D01*
X89476019Y-28176000D01*
X89496021Y-28107879D01*
X89549677Y-28061386D01*
X89602019Y-28050000D01*
X94074000Y-28050000D01*
X94142121Y-28070002D01*
G37*
%TD.AperFunction*%
%TA.AperFunction,Conductor*%
G36*
X75472957Y-28070002D02*
G01*
X75519450Y-28123658D01*
X75530836Y-28176000D01*
X75530836Y-28480400D01*
X75535311Y-28495639D01*
X75536701Y-28496844D01*
X75544384Y-28498515D01*
X76916836Y-28498515D01*
X76984957Y-28518517D01*
X77031450Y-28572173D01*
X77042836Y-28624515D01*
X77042836Y-29992399D01*
X77047311Y-30007638D01*
X77048701Y-30008843D01*
X77056384Y-30010514D01*
X77583505Y-30010514D01*
X77590326Y-30010144D01*
X77641188Y-30004620D01*
X77656436Y-30000995D01*
X77718707Y-29977650D01*
X77789515Y-29972467D01*
X77825650Y-29987183D01*
X77825657Y-29987168D01*
X77825905Y-29987287D01*
X77829972Y-29988944D01*
X77838022Y-29994002D01*
X77965643Y-30038659D01*
X77972668Y-30039451D01*
X77972670Y-30039451D01*
X78025281Y-30045379D01*
X78034993Y-30047100D01*
X78040720Y-30049385D01*
X78046993Y-30050000D01*
X78059223Y-30050000D01*
X78073330Y-30050792D01*
X78083040Y-30051886D01*
X78088777Y-30052714D01*
X78089145Y-30052714D01*
X78100000Y-30054628D01*
X78101574Y-30054351D01*
X78164121Y-30072716D01*
X78210614Y-30126372D01*
X78222000Y-30178714D01*
X78222000Y-30357885D01*
X78226475Y-30373124D01*
X78227865Y-30374329D01*
X78235548Y-30376000D01*
X79208000Y-30376000D01*
X79276121Y-30396002D01*
X79322614Y-30449658D01*
X79334000Y-30502000D01*
X79334000Y-31694884D01*
X79338475Y-31710123D01*
X79339865Y-31711328D01*
X79347548Y-31712999D01*
X79474669Y-31712999D01*
X79481490Y-31712629D01*
X79532352Y-31707105D01*
X79547603Y-31703479D01*
X79675696Y-31655459D01*
X79746503Y-31650276D01*
X79808872Y-31684197D01*
X79838251Y-31730138D01*
X79871266Y-31820356D01*
X79965830Y-31961083D01*
X79971442Y-31966190D01*
X79971445Y-31966193D01*
X80085612Y-32070077D01*
X80085616Y-32070080D01*
X80091233Y-32075191D01*
X80097906Y-32078814D01*
X80097910Y-32078817D01*
X80233558Y-32152467D01*
X80233560Y-32152468D01*
X80240235Y-32156092D01*
X80247584Y-32158020D01*
X80396883Y-32197188D01*
X80396885Y-32197188D01*
X80404233Y-32199116D01*
X80431453Y-32199544D01*
X80431861Y-32199550D01*
X80499659Y-32220619D01*
X80545304Y-32274998D01*
X80554302Y-32345422D01*
X80518977Y-32414629D01*
X80301011Y-32632595D01*
X80238699Y-32666621D01*
X80211917Y-32669500D01*
X80036889Y-32669501D01*
X80023972Y-32669501D01*
X80021023Y-32669780D01*
X80021016Y-32669780D01*
X80000255Y-32671742D01*
X80000254Y-32671742D01*
X79992605Y-32672465D01*
X79985359Y-32675009D01*
X79985357Y-32675010D01*
X79936670Y-32692108D01*
X79865500Y-32717101D01*
X79857927Y-32722694D01*
X79857926Y-32722695D01*
X79805174Y-32761658D01*
X79757138Y-32797138D01*
X79751546Y-32804709D01*
X79683053Y-32897442D01*
X79677101Y-32905500D01*
X79632465Y-33032605D01*
X79631742Y-33040251D01*
X79631742Y-33040252D01*
X79631167Y-33046335D01*
X79629500Y-33063971D01*
X79629501Y-33466028D01*
X79629780Y-33468976D01*
X79629780Y-33468985D01*
X79631163Y-33483621D01*
X79632465Y-33497395D01*
X79635010Y-33504643D01*
X79636656Y-33512145D01*
X79634820Y-33512548D01*
X79638000Y-33573526D01*
X79604514Y-33633469D01*
X79561048Y-33676935D01*
X79551399Y-33689373D01*
X79475166Y-33818276D01*
X79468918Y-33832713D01*
X79430891Y-33963605D01*
X79430931Y-33977705D01*
X79438201Y-33981000D01*
X81056048Y-33981000D01*
X81069579Y-33977027D01*
X81070714Y-33969129D01*
X81031082Y-33832713D01*
X81024834Y-33818276D01*
X80948601Y-33689373D01*
X80938952Y-33676935D01*
X80895486Y-33633469D01*
X80861460Y-33571157D01*
X80865086Y-33512522D01*
X80863345Y-33512140D01*
X80864990Y-33504641D01*
X80867535Y-33497395D01*
X80870500Y-33466029D01*
X80870499Y-33248083D01*
X80890501Y-33179963D01*
X80907404Y-33158988D01*
X82078050Y-31988342D01*
X82087714Y-31969376D01*
X82088038Y-31968741D01*
X82098364Y-31951889D01*
X82100100Y-31949500D01*
X82103776Y-31944441D01*
X82159994Y-31901085D01*
X82230730Y-31895006D01*
X82294809Y-31929402D01*
X82653495Y-32288087D01*
X82687520Y-32350400D01*
X82690400Y-32377183D01*
X82690400Y-32441017D01*
X82670398Y-32509138D01*
X82653496Y-32530112D01*
X82537748Y-32645859D01*
X82444516Y-32739091D01*
X82444503Y-32739105D01*
X82421950Y-32761658D01*
X82417446Y-32770498D01*
X82411965Y-32781255D01*
X82401639Y-32798107D01*
X82388704Y-32815910D01*
X82381907Y-32836830D01*
X82374341Y-32855094D01*
X82368856Y-32865859D01*
X82368855Y-32865863D01*
X82364354Y-32874696D01*
X82362803Y-32884487D01*
X82362803Y-32884488D01*
X82360913Y-32896422D01*
X82356297Y-32915647D01*
X82352565Y-32927132D01*
X82352564Y-32927136D01*
X82349500Y-32936567D01*
X82349500Y-33521603D01*
X82329498Y-33589724D01*
X82302157Y-33617923D01*
X82301847Y-33618061D01*
X82222759Y-33697287D01*
X82177494Y-33799673D01*
X82174500Y-33825354D01*
X82174500Y-34703011D01*
X82154498Y-34771132D01*
X82100842Y-34817625D01*
X82048500Y-34829011D01*
X81139932Y-34829011D01*
X81071811Y-34809009D01*
X81025318Y-34755353D01*
X81015214Y-34685079D01*
X81024295Y-34652970D01*
X81031082Y-34637287D01*
X81069109Y-34506395D01*
X81069069Y-34492295D01*
X81061799Y-34489000D01*
X79443952Y-34489000D01*
X79430421Y-34492973D01*
X79429286Y-34500871D01*
X79468918Y-34637287D01*
X79475705Y-34652970D01*
X79484402Y-34723431D01*
X79453625Y-34787410D01*
X79393143Y-34824592D01*
X79360068Y-34829011D01*
X77947593Y-34829011D01*
X77879472Y-34809009D01*
X77858498Y-34792106D01*
X77734520Y-34668128D01*
X77700494Y-34605816D01*
X77698872Y-34561280D01*
X77704909Y-34518863D01*
X77704909Y-34518857D01*
X77705490Y-34514778D01*
X77705645Y-34500000D01*
X77703840Y-34485080D01*
X77694794Y-34410330D01*
X77685276Y-34331680D01*
X77625345Y-34173077D01*
X77612381Y-34154214D01*
X77533614Y-34039608D01*
X77533613Y-34039607D01*
X77529312Y-34033349D01*
X77509002Y-34015253D01*
X77408392Y-33925612D01*
X77408388Y-33925610D01*
X77402721Y-33920560D01*
X77252881Y-33841224D01*
X77088441Y-33799919D01*
X77080843Y-33799879D01*
X77080841Y-33799879D01*
X77003668Y-33799475D01*
X76918895Y-33799031D01*
X76911508Y-33800805D01*
X76911504Y-33800805D01*
X76768162Y-33835220D01*
X76754032Y-33838612D01*
X76747288Y-33842093D01*
X76747285Y-33842094D01*
X76610117Y-33912892D01*
X76603369Y-33916375D01*
X76597647Y-33921367D01*
X76597645Y-33921368D01*
X76542896Y-33969129D01*
X76475604Y-34027831D01*
X76434475Y-34086351D01*
X76386781Y-34154214D01*
X76378113Y-34166547D01*
X76316524Y-34324513D01*
X76315532Y-34332046D01*
X76315532Y-34332047D01*
X76295618Y-34483314D01*
X76294394Y-34492611D01*
X76312999Y-34661135D01*
X76332172Y-34713527D01*
X76367114Y-34809009D01*
X76371266Y-34820356D01*
X76465830Y-34961083D01*
X76471442Y-34966190D01*
X76471445Y-34966193D01*
X76585612Y-35070077D01*
X76585616Y-35070080D01*
X76591233Y-35075191D01*
X76597906Y-35078814D01*
X76597910Y-35078817D01*
X76733558Y-35152467D01*
X76733560Y-35152468D01*
X76740235Y-35156092D01*
X76747584Y-35158020D01*
X76896883Y-35197188D01*
X76896885Y-35197188D01*
X76904233Y-35199116D01*
X76994043Y-35200527D01*
X77066163Y-35201660D01*
X77066166Y-35201660D01*
X77070924Y-35201734D01*
X77070927Y-35201735D01*
X77073760Y-35201779D01*
X77073753Y-35202251D01*
X77138768Y-35214143D01*
X77171192Y-35237584D01*
X77261530Y-35327922D01*
X77295556Y-35390234D01*
X77290491Y-35461049D01*
X77261532Y-35506110D01*
X76793093Y-35974549D01*
X76730782Y-36008573D01*
X76659966Y-36003508D01*
X76603131Y-35960961D01*
X76578320Y-35894441D01*
X76577999Y-35885452D01*
X76577999Y-35803771D01*
X76577805Y-35798834D01*
X76575581Y-35770560D01*
X76573280Y-35757959D01*
X76531082Y-35612713D01*
X76524834Y-35598276D01*
X76448601Y-35469373D01*
X76438952Y-35456935D01*
X76333065Y-35351048D01*
X76320627Y-35341399D01*
X76191724Y-35265166D01*
X76177287Y-35258918D01*
X76032043Y-35216721D01*
X76021365Y-35214771D01*
X76006969Y-35217795D01*
X76004000Y-35229258D01*
X76004000Y-36143000D01*
X75983998Y-36211121D01*
X75930342Y-36257614D01*
X75878000Y-36269000D01*
X75622000Y-36269000D01*
X75553879Y-36248998D01*
X75507386Y-36195342D01*
X75496000Y-36143000D01*
X75496000Y-35484615D01*
X75491525Y-35469376D01*
X75490135Y-35468171D01*
X75482452Y-35466500D01*
X73535115Y-35466500D01*
X73519876Y-35470975D01*
X73518671Y-35472365D01*
X73517158Y-35479321D01*
X73517337Y-35482782D01*
X73526804Y-35574021D01*
X73529697Y-35587417D01*
X73578830Y-35734687D01*
X73585004Y-35747866D01*
X73666470Y-35879514D01*
X73675506Y-35890915D01*
X73785080Y-36000298D01*
X73796494Y-36009312D01*
X73828157Y-36028830D01*
X73875650Y-36081602D01*
X73887072Y-36151674D01*
X73862403Y-36212268D01*
X73792311Y-36304611D01*
X73792309Y-36304614D01*
X73787119Y-36311452D01*
X73734747Y-36443727D01*
X73733774Y-36451764D01*
X73733774Y-36451766D01*
X73732931Y-36458730D01*
X73724500Y-36528406D01*
X73724500Y-37046594D01*
X73727495Y-37071343D01*
X73733481Y-37120807D01*
X73734747Y-37131273D01*
X73737727Y-37138801D01*
X73737728Y-37138803D01*
X73749343Y-37168139D01*
X73755823Y-37238840D01*
X73747297Y-37265777D01*
X73746895Y-37266681D01*
X73742365Y-37273986D01*
X73739968Y-37282237D01*
X73739967Y-37282239D01*
X73730225Y-37315772D01*
X73726380Y-37327002D01*
X73710364Y-37367453D01*
X73709466Y-37375994D01*
X73709466Y-37375995D01*
X73708792Y-37382408D01*
X73704480Y-37404383D01*
X73700285Y-37418825D01*
X73699500Y-37429515D01*
X73699500Y-37464217D01*
X73698810Y-37477387D01*
X73694599Y-37517454D01*
X73696031Y-37525919D01*
X73696031Y-37525928D01*
X73697735Y-37536000D01*
X73699500Y-37557013D01*
X73699500Y-38025125D01*
X73676587Y-38097575D01*
X73628113Y-38166547D01*
X73625354Y-38173622D01*
X73625353Y-38173625D01*
X73594944Y-38251620D01*
X73566524Y-38324513D01*
X73565532Y-38332046D01*
X73565532Y-38332047D01*
X73545991Y-38480484D01*
X73544394Y-38492611D01*
X73562999Y-38661135D01*
X73593669Y-38744943D01*
X73596709Y-38753251D01*
X73601336Y-38824096D01*
X73566926Y-38886197D01*
X73552437Y-38898493D01*
X73548109Y-38901637D01*
X73531259Y-38911962D01*
X73520498Y-38917445D01*
X73520495Y-38917448D01*
X73511658Y-38921950D01*
X73504644Y-38928964D01*
X73499860Y-38932440D01*
X73432992Y-38956299D01*
X73363841Y-38940220D01*
X73352946Y-38933158D01*
X73352079Y-38932699D01*
X73344500Y-38927101D01*
X73335613Y-38923980D01*
X73335611Y-38923979D01*
X73224642Y-38885010D01*
X73217395Y-38882465D01*
X73209749Y-38881742D01*
X73209748Y-38881742D01*
X73203665Y-38881167D01*
X73186029Y-38879500D01*
X72985170Y-38879500D01*
X72783972Y-38879501D01*
X72781024Y-38879780D01*
X72781015Y-38879780D01*
X72760255Y-38881742D01*
X72760254Y-38881742D01*
X72752605Y-38882465D01*
X72745359Y-38885009D01*
X72745357Y-38885010D01*
X72698011Y-38901637D01*
X72625500Y-38927101D01*
X72617928Y-38932694D01*
X72617922Y-38932697D01*
X72600610Y-38945484D01*
X72533932Y-38969866D01*
X72464656Y-38954329D01*
X72414778Y-38903805D01*
X72406276Y-38878593D01*
X72405262Y-38878922D01*
X72402197Y-38869489D01*
X72400646Y-38859696D01*
X72390660Y-38840097D01*
X72383096Y-38821836D01*
X72376297Y-38800911D01*
X72363366Y-38783113D01*
X72353037Y-38766257D01*
X72347552Y-38755493D01*
X72347551Y-38755492D01*
X72343050Y-38746658D01*
X72320487Y-38724095D01*
X72320484Y-38724091D01*
X72238258Y-38641865D01*
X72204232Y-38579553D01*
X72202610Y-38535019D01*
X72204908Y-38518867D01*
X72205490Y-38514778D01*
X72205645Y-38500000D01*
X72203840Y-38485080D01*
X72198800Y-38443435D01*
X72185276Y-38331680D01*
X72125345Y-38173077D01*
X72073454Y-38097575D01*
X72033614Y-38039608D01*
X72033613Y-38039607D01*
X72029312Y-38033349D01*
X72015867Y-38021370D01*
X71908392Y-37925612D01*
X71908388Y-37925610D01*
X71902721Y-37920560D01*
X71884921Y-37911135D01*
X71792698Y-37862306D01*
X71752881Y-37841224D01*
X71588441Y-37799919D01*
X71580843Y-37799879D01*
X71580841Y-37799879D01*
X71503668Y-37799475D01*
X71418895Y-37799031D01*
X71411508Y-37800805D01*
X71411504Y-37800805D01*
X71301486Y-37827219D01*
X71254032Y-37838612D01*
X71247288Y-37842093D01*
X71247285Y-37842094D01*
X71171172Y-37881379D01*
X71103369Y-37916375D01*
X70975604Y-38027831D01*
X70934475Y-38086351D01*
X70882482Y-38160330D01*
X70882481Y-38160332D01*
X70878113Y-38166547D01*
X70816524Y-38324513D01*
X70815532Y-38332046D01*
X70815532Y-38332047D01*
X70795991Y-38480484D01*
X70794394Y-38492611D01*
X70812999Y-38661135D01*
X70843669Y-38744943D01*
X70865463Y-38804498D01*
X70871266Y-38820356D01*
X70875502Y-38826659D01*
X70875502Y-38826660D01*
X70885811Y-38842001D01*
X70965830Y-38961083D01*
X70971442Y-38966190D01*
X70971445Y-38966193D01*
X71085612Y-39070077D01*
X71085616Y-39070080D01*
X71091233Y-39075191D01*
X71097906Y-39078814D01*
X71097910Y-39078817D01*
X71233558Y-39152467D01*
X71233560Y-39152468D01*
X71240235Y-39156092D01*
X71324903Y-39178304D01*
X71325474Y-39178454D01*
X71386289Y-39215088D01*
X71417644Y-39278785D01*
X71419500Y-39300330D01*
X71419501Y-39512408D01*
X71419501Y-39726028D01*
X71422465Y-39757395D01*
X71424261Y-39762511D01*
X71419386Y-39832368D01*
X71390350Y-39877633D01*
X71351048Y-39916935D01*
X71341399Y-39929373D01*
X71265166Y-40058276D01*
X71258918Y-40072713D01*
X71216721Y-40217957D01*
X71214771Y-40228635D01*
X71217795Y-40243031D01*
X71229258Y-40246000D01*
X72143000Y-40246000D01*
X72211121Y-40266002D01*
X72257614Y-40319658D01*
X72269000Y-40372000D01*
X72269000Y-40628000D01*
X72248998Y-40696121D01*
X72195342Y-40742614D01*
X72143000Y-40754000D01*
X71231319Y-40754000D01*
X71216524Y-40758344D01*
X71214492Y-40769840D01*
X71216721Y-40782043D01*
X71258918Y-40927287D01*
X71265166Y-40941724D01*
X71341399Y-41070627D01*
X71351048Y-41083065D01*
X71390350Y-41122367D01*
X71424376Y-41184679D01*
X71424329Y-41237297D01*
X71422465Y-41242605D01*
X71419500Y-41273971D01*
X71419501Y-41726028D01*
X71419780Y-41728976D01*
X71419780Y-41728985D01*
X71421742Y-41749745D01*
X71422465Y-41757395D01*
X71425009Y-41764641D01*
X71425010Y-41764643D01*
X71449538Y-41834489D01*
X71467101Y-41884500D01*
X71472694Y-41892073D01*
X71472695Y-41892074D01*
X71508378Y-41940385D01*
X71547138Y-41992862D01*
X71554709Y-41998454D01*
X71554713Y-41998458D01*
X71563359Y-42004844D01*
X71606270Y-42061405D01*
X71614500Y-42106195D01*
X71614500Y-43578433D01*
X71617564Y-43587864D01*
X71617565Y-43587868D01*
X71621297Y-43599353D01*
X71625913Y-43618578D01*
X71629354Y-43640304D01*
X71633855Y-43649137D01*
X71633856Y-43649141D01*
X71639341Y-43659906D01*
X71646905Y-43678166D01*
X71653704Y-43699090D01*
X71666639Y-43716893D01*
X71676965Y-43733745D01*
X71686950Y-43753342D01*
X71709513Y-43775905D01*
X71709516Y-43775909D01*
X72489091Y-44555484D01*
X72489095Y-44555487D01*
X72511658Y-44578050D01*
X72527138Y-44585937D01*
X72531255Y-44588035D01*
X72548107Y-44598361D01*
X72565910Y-44611296D01*
X72586834Y-44618095D01*
X72605094Y-44625659D01*
X72615859Y-44631144D01*
X72615863Y-44631145D01*
X72624696Y-44635646D01*
X72634487Y-44637197D01*
X72634488Y-44637197D01*
X72646422Y-44639087D01*
X72665647Y-44643703D01*
X72677132Y-44647435D01*
X72677136Y-44647436D01*
X72686567Y-44650500D01*
X72857983Y-44650500D01*
X72926104Y-44670502D01*
X72955879Y-44699674D01*
X72956628Y-44699027D01*
X72961597Y-44704784D01*
X72965830Y-44711083D01*
X72971442Y-44716190D01*
X72971445Y-44716193D01*
X73085612Y-44820077D01*
X73085616Y-44820080D01*
X73091233Y-44825191D01*
X73097906Y-44828814D01*
X73097910Y-44828817D01*
X73233558Y-44902467D01*
X73233560Y-44902468D01*
X73240235Y-44906092D01*
X73393413Y-44946277D01*
X73450533Y-44979058D01*
X74292595Y-45821120D01*
X74326621Y-45883432D01*
X74329500Y-45910215D01*
X74329500Y-46292052D01*
X74309498Y-46360173D01*
X74267923Y-46400337D01*
X74205821Y-46437284D01*
X74200856Y-46440238D01*
X74041881Y-46579655D01*
X73910976Y-46745708D01*
X73908287Y-46750819D01*
X73908285Y-46750822D01*
X73858400Y-46845638D01*
X73812523Y-46932836D01*
X73749820Y-47134773D01*
X73724967Y-47344754D01*
X73738796Y-47555749D01*
X73740217Y-47561345D01*
X73740218Y-47561350D01*
X73762000Y-47647115D01*
X73790845Y-47760690D01*
X73793262Y-47765933D01*
X73827169Y-47839483D01*
X73879369Y-47952714D01*
X74001405Y-48125391D01*
X74005539Y-48129418D01*
X74136865Y-48257350D01*
X74152865Y-48272937D01*
X74157661Y-48276142D01*
X74157664Y-48276144D01*
X74257129Y-48342604D01*
X74328677Y-48390411D01*
X74333980Y-48392689D01*
X74333985Y-48392692D01*
X74403237Y-48422444D01*
X74457930Y-48467712D01*
X74479500Y-48538212D01*
X74479500Y-48891176D01*
X74459498Y-48959297D01*
X74442595Y-48980271D01*
X72647771Y-50775095D01*
X72585459Y-50809121D01*
X72558676Y-50812000D01*
X72077741Y-50812000D01*
X72009620Y-50791998D01*
X71967968Y-50747854D01*
X71966042Y-50744436D01*
X71962881Y-50736452D01*
X71876867Y-50623133D01*
X71763548Y-50537119D01*
X71631273Y-50484747D01*
X71623236Y-50483774D01*
X71623234Y-50483774D01*
X71592550Y-50480061D01*
X71546594Y-50474500D01*
X70953406Y-50474500D01*
X70907450Y-50480061D01*
X70876766Y-50483774D01*
X70876764Y-50483774D01*
X70868727Y-50484747D01*
X70736452Y-50537119D01*
X70623133Y-50623133D01*
X70537119Y-50736452D01*
X70533958Y-50744436D01*
X70511798Y-50800405D01*
X70468124Y-50856379D01*
X70394646Y-50880022D01*
X69960264Y-50880022D01*
X69960264Y-50884979D01*
X69890502Y-50884979D01*
X69830776Y-50846596D01*
X69801283Y-50782015D01*
X69800000Y-50764083D01*
X69800000Y-48089336D01*
X69820002Y-48021215D01*
X69873658Y-47974722D01*
X69943932Y-47964618D01*
X70008512Y-47994112D01*
X70033432Y-48023501D01*
X70067363Y-48078870D01*
X70067366Y-48078875D01*
X70070066Y-48083280D01*
X70220850Y-48257350D01*
X70398040Y-48404456D01*
X70596877Y-48520647D01*
X70601702Y-48522489D01*
X70601703Y-48522490D01*
X70617753Y-48528619D01*
X70812021Y-48602803D01*
X70817087Y-48603834D01*
X70817088Y-48603834D01*
X70917784Y-48624320D01*
X71037694Y-48648716D01*
X71167439Y-48653474D01*
X71262672Y-48656966D01*
X71262676Y-48656966D01*
X71267836Y-48657155D01*
X71272956Y-48656499D01*
X71272958Y-48656499D01*
X71342359Y-48647609D01*
X71496265Y-48627893D01*
X71501213Y-48626408D01*
X71501220Y-48626407D01*
X71711898Y-48563200D01*
X71711897Y-48563200D01*
X71716848Y-48561715D01*
X71923661Y-48460398D01*
X72111149Y-48326665D01*
X72274277Y-48164105D01*
X72318844Y-48102084D01*
X72405646Y-47981285D01*
X72408664Y-47977085D01*
X72510702Y-47770627D01*
X72551950Y-47634865D01*
X72576146Y-47555229D01*
X72576147Y-47555223D01*
X72577650Y-47550277D01*
X72601887Y-47366174D01*
X72607272Y-47325273D01*
X72607272Y-47325267D01*
X72607709Y-47321951D01*
X72609387Y-47253302D01*
X72590517Y-47023780D01*
X72534413Y-46800422D01*
X72448089Y-46601889D01*
X72444643Y-46593963D01*
X72444641Y-46593960D01*
X72442583Y-46589226D01*
X72352909Y-46450611D01*
X72320302Y-46400208D01*
X72320300Y-46400205D01*
X72317492Y-46395865D01*
X72311325Y-46389087D01*
X72165977Y-46229353D01*
X72165976Y-46229352D01*
X72162499Y-46225531D01*
X72158448Y-46222332D01*
X72158444Y-46222328D01*
X71985822Y-46085999D01*
X71985817Y-46085995D01*
X71981768Y-46082798D01*
X71977252Y-46080305D01*
X71977249Y-46080303D01*
X71784676Y-45973997D01*
X71784672Y-45973995D01*
X71780152Y-45971500D01*
X71775283Y-45969776D01*
X71775279Y-45969774D01*
X71567940Y-45896351D01*
X71567936Y-45896350D01*
X71563065Y-45894625D01*
X71557972Y-45893718D01*
X71557969Y-45893717D01*
X71443812Y-45873383D01*
X71336337Y-45854239D01*
X71249889Y-45853183D01*
X71111228Y-45851488D01*
X71111226Y-45851488D01*
X71106058Y-45851425D01*
X70878412Y-45886260D01*
X70659511Y-45957808D01*
X70654919Y-45960198D01*
X70654920Y-45960198D01*
X70479896Y-46051310D01*
X70455236Y-46064147D01*
X70271071Y-46202421D01*
X70111964Y-46368918D01*
X70035963Y-46480331D01*
X70030088Y-46488944D01*
X69975177Y-46533946D01*
X69904652Y-46542117D01*
X69840905Y-46510863D01*
X69804175Y-46450105D01*
X69800000Y-46417939D01*
X69800000Y-34941700D01*
X73517386Y-34941700D01*
X73521475Y-34955624D01*
X73522865Y-34956829D01*
X73530548Y-34958500D01*
X74227885Y-34958500D01*
X74243124Y-34954025D01*
X74244329Y-34952635D01*
X74246000Y-34944952D01*
X74246000Y-34285115D01*
X74244659Y-34280548D01*
X74754000Y-34280548D01*
X74754000Y-34940385D01*
X74758475Y-34955624D01*
X74759865Y-34956829D01*
X74767548Y-34958500D01*
X75464885Y-34958500D01*
X75480124Y-34954025D01*
X75481329Y-34952635D01*
X75482842Y-34945679D01*
X75482663Y-34942218D01*
X75473196Y-34850979D01*
X75470303Y-34837583D01*
X75421170Y-34690313D01*
X75414996Y-34677134D01*
X75333530Y-34545486D01*
X75324494Y-34534085D01*
X75214920Y-34424702D01*
X75203509Y-34415690D01*
X75071709Y-34334447D01*
X75058532Y-34328303D01*
X74911157Y-34279421D01*
X74897790Y-34276555D01*
X74807730Y-34267328D01*
X74801315Y-34267000D01*
X74772115Y-34267000D01*
X74756876Y-34271475D01*
X74755671Y-34272865D01*
X74754000Y-34280548D01*
X74244659Y-34280548D01*
X74241525Y-34269876D01*
X74240135Y-34268671D01*
X74232452Y-34267000D01*
X74198734Y-34267000D01*
X74192218Y-34267337D01*
X74100979Y-34276804D01*
X74087583Y-34279697D01*
X73940313Y-34328830D01*
X73927134Y-34335004D01*
X73795486Y-34416470D01*
X73784085Y-34425506D01*
X73674702Y-34535080D01*
X73665690Y-34546491D01*
X73584447Y-34678291D01*
X73578303Y-34691468D01*
X73529421Y-34838843D01*
X73526555Y-34852210D01*
X73517386Y-34941700D01*
X69800000Y-34941700D01*
X69800000Y-31676000D01*
X69820002Y-31607879D01*
X69873658Y-31561386D01*
X69926000Y-31550000D01*
X70162729Y-31550000D01*
X70184608Y-31551914D01*
X70200000Y-31554628D01*
X70210855Y-31552714D01*
X70211223Y-31552714D01*
X70216960Y-31551886D01*
X70327323Y-31539452D01*
X70327327Y-31539451D01*
X70334357Y-31538659D01*
X70461978Y-31494002D01*
X70467966Y-31490239D01*
X70467969Y-31490238D01*
X70570466Y-31425835D01*
X70570467Y-31425834D01*
X70576461Y-31422068D01*
X70672068Y-31326461D01*
X70703925Y-31275761D01*
X70740238Y-31217969D01*
X70740239Y-31217966D01*
X70744002Y-31211978D01*
X70788659Y-31084357D01*
X70793982Y-31037119D01*
X70795379Y-31024719D01*
X70797100Y-31015007D01*
X70799385Y-31009280D01*
X70800000Y-31003007D01*
X70800000Y-30990777D01*
X70800792Y-30976670D01*
X70801037Y-30974500D01*
X70801886Y-30966959D01*
X70802714Y-30961223D01*
X70802714Y-30960855D01*
X70804628Y-30950000D01*
X70801914Y-30934608D01*
X70800000Y-30912729D01*
X70800000Y-30897548D01*
X78222001Y-30897548D01*
X78222001Y-31249669D01*
X78222371Y-31256490D01*
X78227895Y-31307352D01*
X78231521Y-31322604D01*
X78276676Y-31443054D01*
X78285214Y-31458649D01*
X78361715Y-31560724D01*
X78374276Y-31573285D01*
X78476351Y-31649786D01*
X78491946Y-31658324D01*
X78612394Y-31703478D01*
X78627649Y-31707105D01*
X78678514Y-31712631D01*
X78685328Y-31713000D01*
X78807885Y-31713000D01*
X78823124Y-31708525D01*
X78824329Y-31707135D01*
X78826000Y-31699452D01*
X78826000Y-30902115D01*
X78821525Y-30886876D01*
X78820135Y-30885671D01*
X78812452Y-30884000D01*
X78240116Y-30884000D01*
X78224877Y-30888475D01*
X78223672Y-30889865D01*
X78222001Y-30897548D01*
X70800000Y-30897548D01*
X70800000Y-29500000D01*
X71368672Y-29500000D01*
X71369362Y-29506565D01*
X71380685Y-29614292D01*
X71387931Y-29683238D01*
X71444867Y-29858468D01*
X71536991Y-30018032D01*
X71541409Y-30022939D01*
X71541410Y-30022940D01*
X71634541Y-30126372D01*
X71660276Y-30154954D01*
X71665618Y-30158835D01*
X71665620Y-30158837D01*
X71689243Y-30176000D01*
X71809336Y-30263252D01*
X71815364Y-30265936D01*
X71815366Y-30265937D01*
X71971624Y-30335508D01*
X71977655Y-30338193D01*
X72067766Y-30357347D01*
X72151419Y-30375128D01*
X72151423Y-30375128D01*
X72157876Y-30376500D01*
X72342124Y-30376500D01*
X72348577Y-30375128D01*
X72348581Y-30375128D01*
X72432234Y-30357347D01*
X72522345Y-30338193D01*
X72528376Y-30335508D01*
X72684634Y-30265937D01*
X72684636Y-30265936D01*
X72690664Y-30263252D01*
X72810757Y-30176000D01*
X72834380Y-30158837D01*
X72834382Y-30158835D01*
X72839724Y-30154954D01*
X72865459Y-30126372D01*
X72958590Y-30022940D01*
X72958591Y-30022939D01*
X72963009Y-30018032D01*
X73055133Y-29858468D01*
X73112069Y-29683238D01*
X73119316Y-29614292D01*
X73130638Y-29506565D01*
X73131328Y-29500000D01*
X73112069Y-29316762D01*
X73055133Y-29141532D01*
X72985003Y-29020063D01*
X75530837Y-29020063D01*
X75530837Y-29547184D01*
X75531207Y-29554005D01*
X75536731Y-29604867D01*
X75540357Y-29620119D01*
X75585512Y-29740569D01*
X75594050Y-29756164D01*
X75670551Y-29858239D01*
X75683112Y-29870800D01*
X75785187Y-29947301D01*
X75800782Y-29955839D01*
X75921230Y-30000993D01*
X75936485Y-30004620D01*
X75987350Y-30010146D01*
X75994164Y-30010515D01*
X76516721Y-30010515D01*
X76531960Y-30006040D01*
X76533165Y-30004650D01*
X76534836Y-29996967D01*
X76534836Y-29024630D01*
X76530361Y-29009391D01*
X76528971Y-29008186D01*
X76521288Y-29006515D01*
X75548952Y-29006515D01*
X75533713Y-29010990D01*
X75532508Y-29012380D01*
X75530837Y-29020063D01*
X72985003Y-29020063D01*
X72963009Y-28981968D01*
X72839724Y-28845046D01*
X72834382Y-28841165D01*
X72834380Y-28841163D01*
X72696006Y-28740629D01*
X72696005Y-28740628D01*
X72690664Y-28736748D01*
X72684636Y-28734064D01*
X72684634Y-28734063D01*
X72528376Y-28664492D01*
X72528374Y-28664491D01*
X72522345Y-28661807D01*
X72432235Y-28642654D01*
X72348581Y-28624872D01*
X72348577Y-28624872D01*
X72342124Y-28623500D01*
X72157876Y-28623500D01*
X72151423Y-28624872D01*
X72151419Y-28624872D01*
X72067765Y-28642654D01*
X71977655Y-28661807D01*
X71971626Y-28664491D01*
X71971624Y-28664492D01*
X71815366Y-28734063D01*
X71815364Y-28734064D01*
X71809336Y-28736748D01*
X71803995Y-28740628D01*
X71803994Y-28740629D01*
X71665620Y-28841163D01*
X71665618Y-28841165D01*
X71660276Y-28845046D01*
X71536991Y-28981968D01*
X71444867Y-29141532D01*
X71387931Y-29316762D01*
X71368672Y-29500000D01*
X70800000Y-29500000D01*
X70800000Y-28176000D01*
X70820002Y-28107879D01*
X70873658Y-28061386D01*
X70926000Y-28050000D01*
X75404836Y-28050000D01*
X75472957Y-28070002D01*
G37*
%TD.AperFunction*%
%TA.AperFunction,Conductor*%
G36*
X87160032Y-38222659D02*
G01*
X87216868Y-38265206D01*
X87241679Y-38331726D01*
X87242000Y-38340715D01*
X87242000Y-39124000D01*
X87253609Y-39231980D01*
X87264995Y-39284322D01*
X87299293Y-39387372D01*
X87377465Y-39509010D01*
X87423958Y-39562666D01*
X87427352Y-39565607D01*
X87445977Y-39581746D01*
X87533234Y-39657355D01*
X87664760Y-39717421D01*
X87683965Y-39723060D01*
X87728558Y-39736154D01*
X87728562Y-39736155D01*
X87732881Y-39737423D01*
X87737329Y-39738063D01*
X87737336Y-39738064D01*
X87871552Y-39757361D01*
X87871559Y-39757362D01*
X87876000Y-39758000D01*
X88116000Y-39758000D01*
X88184121Y-39778002D01*
X88230614Y-39831658D01*
X88242000Y-39884000D01*
X88242000Y-41785101D01*
X88221998Y-41853222D01*
X88168342Y-41899715D01*
X88098068Y-41909819D01*
X88071769Y-41903082D01*
X88067609Y-41901523D01*
X88052351Y-41897895D01*
X88001486Y-41892369D01*
X87994672Y-41892000D01*
X87472115Y-41892000D01*
X87456876Y-41896475D01*
X87455671Y-41897865D01*
X87454000Y-41905548D01*
X87454000Y-44889884D01*
X87458475Y-44905123D01*
X87459865Y-44906328D01*
X87467548Y-44907999D01*
X87504080Y-44907999D01*
X87572201Y-44928001D01*
X87618694Y-44981657D01*
X87628798Y-45051931D01*
X87597073Y-45117879D01*
X87594930Y-45119614D01*
X87584934Y-45133680D01*
X87584033Y-45134948D01*
X87570421Y-45151055D01*
X87288881Y-45432595D01*
X87226569Y-45466621D01*
X87199786Y-45469500D01*
X86158793Y-45469500D01*
X86090672Y-45449498D01*
X86069698Y-45432595D01*
X85155874Y-44518771D01*
X85121848Y-44456459D01*
X85126913Y-44385644D01*
X85144607Y-44353496D01*
X85207688Y-44270390D01*
X85207691Y-44270385D01*
X85212881Y-44263548D01*
X85265253Y-44131273D01*
X85275500Y-44046594D01*
X85275500Y-43667548D01*
X85942001Y-43667548D01*
X85942001Y-44444669D01*
X85942371Y-44451490D01*
X85947895Y-44502352D01*
X85951521Y-44517604D01*
X85996676Y-44638054D01*
X86005214Y-44653649D01*
X86081715Y-44755724D01*
X86094276Y-44768285D01*
X86196351Y-44844786D01*
X86211946Y-44853324D01*
X86332394Y-44898478D01*
X86347649Y-44902105D01*
X86398514Y-44907631D01*
X86405328Y-44908000D01*
X86927885Y-44908000D01*
X86943124Y-44903525D01*
X86944329Y-44902135D01*
X86946000Y-44894452D01*
X86946000Y-43672115D01*
X86941525Y-43656876D01*
X86940135Y-43655671D01*
X86932452Y-43654000D01*
X85960116Y-43654000D01*
X85944877Y-43658475D01*
X85943672Y-43659865D01*
X85942001Y-43667548D01*
X85275500Y-43667548D01*
X85275500Y-43528406D01*
X85265253Y-43443727D01*
X85212881Y-43311452D01*
X85137554Y-43212212D01*
X85112301Y-43145859D01*
X85126929Y-43076386D01*
X85171614Y-43028888D01*
X85204520Y-43008525D01*
X85215915Y-42999494D01*
X85325298Y-42889920D01*
X85334310Y-42878509D01*
X85415553Y-42746709D01*
X85421697Y-42733532D01*
X85470579Y-42586157D01*
X85473445Y-42572790D01*
X85482614Y-42483300D01*
X85478525Y-42469376D01*
X85477135Y-42468171D01*
X85469452Y-42466500D01*
X83535115Y-42466500D01*
X83519876Y-42470975D01*
X83518671Y-42472365D01*
X83517158Y-42479321D01*
X83517337Y-42482782D01*
X83526804Y-42574021D01*
X83529697Y-42587417D01*
X83578830Y-42734687D01*
X83585004Y-42747866D01*
X83666470Y-42879514D01*
X83675506Y-42890915D01*
X83785080Y-43000298D01*
X83796494Y-43009312D01*
X83828157Y-43028830D01*
X83875650Y-43081602D01*
X83887072Y-43151674D01*
X83862403Y-43212268D01*
X83792311Y-43304611D01*
X83792309Y-43304614D01*
X83787119Y-43311452D01*
X83734747Y-43443727D01*
X83724500Y-43528406D01*
X83724500Y-44046594D01*
X83734747Y-44131273D01*
X83787119Y-44263548D01*
X83873133Y-44376867D01*
X83986452Y-44462881D01*
X83990509Y-44464487D01*
X84038618Y-44513898D01*
X84051184Y-44550165D01*
X84055172Y-44572001D01*
X84055822Y-44575904D01*
X84062799Y-44622306D01*
X84064551Y-44633962D01*
X84067679Y-44640475D01*
X84068975Y-44647573D01*
X84096025Y-44699647D01*
X84097768Y-44703137D01*
X84123191Y-44756079D01*
X84128077Y-44761365D01*
X84128110Y-44761413D01*
X84131421Y-44767788D01*
X84135725Y-44772828D01*
X84172952Y-44810055D01*
X84176381Y-44813620D01*
X84215146Y-44855556D01*
X84221505Y-44859249D01*
X84227663Y-44864766D01*
X85401369Y-46038472D01*
X85435395Y-46100784D01*
X85430330Y-46171599D01*
X85387783Y-46228435D01*
X85321263Y-46253246D01*
X85287693Y-46251146D01*
X85166442Y-46227028D01*
X85166440Y-46227028D01*
X85160775Y-46225901D01*
X85155000Y-46225825D01*
X85154996Y-46225825D01*
X85048976Y-46224437D01*
X84949346Y-46223133D01*
X84943649Y-46224112D01*
X84943648Y-46224112D01*
X84746650Y-46257962D01*
X84746649Y-46257962D01*
X84740953Y-46258941D01*
X84542575Y-46332127D01*
X84537614Y-46335079D01*
X84537613Y-46335079D01*
X84390421Y-46422649D01*
X84360856Y-46440238D01*
X84201881Y-46579655D01*
X84070976Y-46745708D01*
X84068287Y-46750819D01*
X84068285Y-46750822D01*
X84018400Y-46845638D01*
X83972523Y-46932836D01*
X83909820Y-47134773D01*
X83909141Y-47140510D01*
X83895088Y-47259239D01*
X83867217Y-47324537D01*
X83808469Y-47364401D01*
X83737494Y-47366174D01*
X83676828Y-47329295D01*
X83645730Y-47265471D01*
X83644490Y-47255958D01*
X83642357Y-47232737D01*
X83636081Y-47164440D01*
X83628942Y-47139125D01*
X83618690Y-47102775D01*
X83578686Y-46960931D01*
X83567553Y-46938354D01*
X83487719Y-46776469D01*
X83485165Y-46771290D01*
X83358651Y-46601867D01*
X83249581Y-46501044D01*
X83207622Y-46462257D01*
X83207620Y-46462255D01*
X83203381Y-46458337D01*
X83198503Y-46455259D01*
X83198491Y-46455250D01*
X83120309Y-46405921D01*
X83073371Y-46352655D01*
X83062683Y-46282467D01*
X83079985Y-46239326D01*
X83078051Y-46238341D01*
X83088038Y-46218741D01*
X83098368Y-46201884D01*
X83105465Y-46192115D01*
X83111296Y-46184090D01*
X83118094Y-46163168D01*
X83125658Y-46144907D01*
X83131145Y-46134139D01*
X83131146Y-46134135D01*
X83135646Y-46125304D01*
X83137197Y-46115515D01*
X83137199Y-46115507D01*
X83139089Y-46103573D01*
X83143703Y-46084353D01*
X83147435Y-46072867D01*
X83147436Y-46072860D01*
X83150499Y-46063433D01*
X83150499Y-46031525D01*
X83150500Y-46031519D01*
X83150500Y-42355328D01*
X85942000Y-42355328D01*
X85942000Y-43127885D01*
X85946475Y-43143124D01*
X85947865Y-43144329D01*
X85955548Y-43146000D01*
X86927885Y-43146000D01*
X86943124Y-43141525D01*
X86944329Y-43140135D01*
X86946000Y-43132452D01*
X86946000Y-41910116D01*
X86941525Y-41894877D01*
X86940135Y-41893672D01*
X86932452Y-41892001D01*
X86405331Y-41892001D01*
X86398510Y-41892371D01*
X86347648Y-41897895D01*
X86332396Y-41901521D01*
X86211946Y-41946676D01*
X86196351Y-41955214D01*
X86094276Y-42031715D01*
X86081715Y-42044276D01*
X86005214Y-42146351D01*
X85996676Y-42161946D01*
X85951522Y-42282394D01*
X85947895Y-42297649D01*
X85942369Y-42348514D01*
X85942000Y-42355328D01*
X83150500Y-42355328D01*
X83150500Y-42186567D01*
X83147436Y-42177136D01*
X83147435Y-42177132D01*
X83143703Y-42165647D01*
X83139087Y-42146422D01*
X83137197Y-42134488D01*
X83137197Y-42134487D01*
X83135646Y-42124696D01*
X83131145Y-42115863D01*
X83131144Y-42115859D01*
X83125659Y-42105094D01*
X83118093Y-42086830D01*
X83114581Y-42076019D01*
X83111296Y-42065910D01*
X83105467Y-42057888D01*
X83105466Y-42057885D01*
X83098368Y-42048116D01*
X83088038Y-42031259D01*
X83082552Y-42020493D01*
X83082551Y-42020492D01*
X83078050Y-42011658D01*
X82509391Y-41442999D01*
X82475366Y-41380688D01*
X82480431Y-41309873D01*
X82522978Y-41253037D01*
X82589498Y-41228226D01*
X82615150Y-41229012D01*
X82633361Y-41231441D01*
X82653181Y-41234086D01*
X82660193Y-41233448D01*
X82660197Y-41233448D01*
X82825011Y-41218449D01*
X82825012Y-41218449D01*
X82832032Y-41217810D01*
X83002833Y-41162313D01*
X83027290Y-41147734D01*
X83151043Y-41073963D01*
X83151045Y-41073962D01*
X83157095Y-41070355D01*
X83287150Y-40946505D01*
X83311053Y-40910528D01*
X83365410Y-40864857D01*
X83435830Y-40855825D01*
X83499954Y-40886298D01*
X83537424Y-40946602D01*
X83541248Y-40974717D01*
X83541833Y-40974687D01*
X83542338Y-40984452D01*
X83552166Y-41079170D01*
X83555058Y-41092564D01*
X83606036Y-41245365D01*
X83612210Y-41258543D01*
X83689307Y-41383131D01*
X83708145Y-41451583D01*
X83686984Y-41519353D01*
X83678976Y-41529126D01*
X83679240Y-41529334D01*
X83665690Y-41546491D01*
X83584447Y-41678291D01*
X83578303Y-41691468D01*
X83529421Y-41838843D01*
X83526555Y-41852210D01*
X83517386Y-41941700D01*
X83521475Y-41955624D01*
X83522865Y-41956829D01*
X83530548Y-41958500D01*
X84227885Y-41958500D01*
X84243124Y-41954025D01*
X84244329Y-41952635D01*
X84246000Y-41944952D01*
X84246000Y-41736548D01*
X84754000Y-41736548D01*
X84754000Y-41940385D01*
X84758475Y-41955624D01*
X84759865Y-41956829D01*
X84767548Y-41958500D01*
X85464885Y-41958500D01*
X85480124Y-41954025D01*
X85481329Y-41952635D01*
X85482842Y-41945679D01*
X85482663Y-41942218D01*
X85473196Y-41850979D01*
X85470302Y-41837579D01*
X85449488Y-41775191D01*
X85446904Y-41704242D01*
X85483088Y-41643158D01*
X85515560Y-41621215D01*
X85533543Y-41612790D01*
X85670149Y-41528256D01*
X85681550Y-41519220D01*
X85795051Y-41405521D01*
X85804063Y-41394110D01*
X85888365Y-41257346D01*
X85894509Y-41244168D01*
X85945227Y-41091260D01*
X85948093Y-41077894D01*
X85957672Y-40984399D01*
X85958000Y-40977984D01*
X85958000Y-40959615D01*
X85953525Y-40944376D01*
X85952135Y-40943171D01*
X85944452Y-40941500D01*
X85022115Y-40941500D01*
X85006876Y-40945975D01*
X85005671Y-40947365D01*
X85004000Y-40955048D01*
X85004000Y-41597000D01*
X84983998Y-41665121D01*
X84930342Y-41711614D01*
X84878000Y-41723000D01*
X84772115Y-41723000D01*
X84756876Y-41727475D01*
X84755671Y-41728865D01*
X84754000Y-41736548D01*
X84246000Y-41736548D01*
X84246000Y-41353000D01*
X84266002Y-41284879D01*
X84319658Y-41238386D01*
X84372000Y-41227000D01*
X84477885Y-41227000D01*
X84493124Y-41222525D01*
X84494329Y-41221135D01*
X84496000Y-41213452D01*
X84496000Y-40559500D01*
X84516002Y-40491379D01*
X84569658Y-40444886D01*
X84622000Y-40433500D01*
X85939884Y-40433500D01*
X85955123Y-40429025D01*
X85956328Y-40427635D01*
X85957999Y-40419952D01*
X85957999Y-40397067D01*
X85957662Y-40390548D01*
X85947834Y-40295830D01*
X85944942Y-40282436D01*
X85893964Y-40129635D01*
X85887790Y-40116457D01*
X85803256Y-39979851D01*
X85794220Y-39968450D01*
X85680521Y-39854949D01*
X85669110Y-39845937D01*
X85532346Y-39761635D01*
X85519173Y-39755493D01*
X85513877Y-39753736D01*
X85455518Y-39713304D01*
X85428282Y-39647740D01*
X85440816Y-39577858D01*
X85477365Y-39533782D01*
X85594711Y-39444711D01*
X85684866Y-39325936D01*
X85703535Y-39278785D01*
X85734895Y-39199577D01*
X85739759Y-39187292D01*
X85750500Y-39098534D01*
X85750500Y-38926500D01*
X85770502Y-38858379D01*
X85824158Y-38811886D01*
X85876500Y-38800500D01*
X86235007Y-38800500D01*
X86240284Y-38800611D01*
X86302294Y-38803210D01*
X86313848Y-38800500D01*
X86344662Y-38793273D01*
X86356333Y-38791110D01*
X86371229Y-38789069D01*
X86399432Y-38785206D01*
X86413230Y-38779235D01*
X86434499Y-38772201D01*
X86440775Y-38770729D01*
X86449136Y-38768768D01*
X86456661Y-38764631D01*
X86456664Y-38764630D01*
X86487268Y-38747805D01*
X86497913Y-38742589D01*
X86537855Y-38725305D01*
X86549541Y-38715842D01*
X86568126Y-38703354D01*
X86575518Y-38699290D01*
X86581308Y-38696107D01*
X86589422Y-38689103D01*
X86613958Y-38664567D01*
X86623759Y-38655742D01*
X86648392Y-38635794D01*
X86648393Y-38635793D01*
X86655070Y-38630386D01*
X86665966Y-38615054D01*
X86679576Y-38598949D01*
X87026905Y-38251620D01*
X87089217Y-38217595D01*
X87160032Y-38222659D01*
G37*
%TD.AperFunction*%
%TA.AperFunction,Conductor*%
G36*
X74048802Y-41371757D02*
G01*
X74105638Y-41414304D01*
X74117875Y-41434287D01*
X74122906Y-41444535D01*
X74134971Y-41514499D01*
X74123001Y-41555394D01*
X74109819Y-41582361D01*
X74108408Y-41592036D01*
X74108407Y-41592038D01*
X74100950Y-41643158D01*
X74099500Y-41653096D01*
X74099500Y-41846904D01*
X74100169Y-41851452D01*
X74100170Y-41851459D01*
X74108577Y-41908569D01*
X74110003Y-41918254D01*
X74114318Y-41927042D01*
X74114318Y-41927043D01*
X74122904Y-41944530D01*
X74134972Y-42014493D01*
X74123001Y-42055394D01*
X74109819Y-42082361D01*
X74108408Y-42092036D01*
X74108407Y-42092038D01*
X74100235Y-42148061D01*
X74099500Y-42153096D01*
X74099500Y-42346904D01*
X74100169Y-42351452D01*
X74100170Y-42351459D01*
X74104992Y-42384216D01*
X74110003Y-42418254D01*
X74114318Y-42427042D01*
X74114318Y-42427043D01*
X74153787Y-42507431D01*
X74163263Y-42526732D01*
X74248790Y-42612110D01*
X74357361Y-42665181D01*
X74367036Y-42666592D01*
X74367038Y-42666593D01*
X74423569Y-42674840D01*
X74423575Y-42674840D01*
X74428096Y-42675500D01*
X75064827Y-42675500D01*
X75132948Y-42695502D01*
X75165653Y-42725935D01*
X75206715Y-42780724D01*
X75219276Y-42793285D01*
X75274065Y-42834347D01*
X75316580Y-42891206D01*
X75324500Y-42935173D01*
X75324500Y-43571904D01*
X75325169Y-43576452D01*
X75325170Y-43576459D01*
X75331905Y-43622208D01*
X75335003Y-43643254D01*
X75339318Y-43652042D01*
X75339318Y-43652043D01*
X75379432Y-43733745D01*
X75388263Y-43751732D01*
X75473790Y-43837110D01*
X75530904Y-43865028D01*
X75555396Y-43877000D01*
X75582361Y-43890181D01*
X75592036Y-43891592D01*
X75592038Y-43891593D01*
X75648569Y-43899840D01*
X75648575Y-43899840D01*
X75653096Y-43900500D01*
X75846904Y-43900500D01*
X75851452Y-43899831D01*
X75851459Y-43899830D01*
X75908569Y-43891423D01*
X75908571Y-43891422D01*
X75918254Y-43889997D01*
X75944531Y-43877096D01*
X76014493Y-43865028D01*
X76055394Y-43876999D01*
X76082361Y-43890181D01*
X76092036Y-43891592D01*
X76092038Y-43891593D01*
X76148569Y-43899840D01*
X76148575Y-43899840D01*
X76153096Y-43900500D01*
X76346904Y-43900500D01*
X76351452Y-43899831D01*
X76351459Y-43899830D01*
X76408569Y-43891423D01*
X76408571Y-43891422D01*
X76418254Y-43889997D01*
X76444531Y-43877096D01*
X76514493Y-43865028D01*
X76555394Y-43876999D01*
X76582361Y-43890181D01*
X76592036Y-43891592D01*
X76592038Y-43891593D01*
X76648569Y-43899840D01*
X76648575Y-43899840D01*
X76653096Y-43900500D01*
X76846904Y-43900500D01*
X76851452Y-43899831D01*
X76851459Y-43899830D01*
X76908569Y-43891423D01*
X76908571Y-43891422D01*
X76918254Y-43889997D01*
X76944531Y-43877096D01*
X77014493Y-43865028D01*
X77055394Y-43876999D01*
X77082361Y-43890181D01*
X77092036Y-43891592D01*
X77092038Y-43891593D01*
X77097366Y-43892370D01*
X77161886Y-43921998D01*
X77200145Y-43981804D01*
X77199997Y-44052800D01*
X77182263Y-44089500D01*
X77128113Y-44166547D01*
X77066524Y-44324513D01*
X77065532Y-44332046D01*
X77065532Y-44332047D01*
X77060723Y-44368580D01*
X77054182Y-44418266D01*
X77053736Y-44421651D01*
X77025014Y-44486578D01*
X76965749Y-44525670D01*
X76894757Y-44526515D01*
X76839408Y-44493989D01*
X76815395Y-44469807D01*
X76815391Y-44469804D01*
X76810432Y-44464810D01*
X76799423Y-44457823D01*
X76725854Y-44411135D01*
X76658798Y-44368580D01*
X76616437Y-44353496D01*
X76496248Y-44310698D01*
X76496243Y-44310697D01*
X76489613Y-44308336D01*
X76482627Y-44307503D01*
X76482623Y-44307502D01*
X76354839Y-44292265D01*
X76311286Y-44287072D01*
X76304283Y-44287808D01*
X76304282Y-44287808D01*
X76139687Y-44305107D01*
X76139683Y-44305108D01*
X76132679Y-44305844D01*
X76126008Y-44308115D01*
X75969339Y-44361449D01*
X75969336Y-44361450D01*
X75962669Y-44363720D01*
X75956671Y-44367410D01*
X75956669Y-44367411D01*
X75941299Y-44376867D01*
X75809707Y-44457823D01*
X75804676Y-44462749D01*
X75804673Y-44462752D01*
X75752445Y-44513898D01*
X75681394Y-44583476D01*
X75677575Y-44589401D01*
X75677574Y-44589403D01*
X75589476Y-44726104D01*
X75584108Y-44734434D01*
X75581699Y-44741054D01*
X75581697Y-44741057D01*
X75558217Y-44805568D01*
X75522684Y-44903195D01*
X75500176Y-45081370D01*
X75500863Y-45088377D01*
X75500863Y-45088379D01*
X75508243Y-45163641D01*
X75494984Y-45233389D01*
X75446121Y-45284896D01*
X75377168Y-45301809D01*
X75310018Y-45278759D01*
X75284923Y-45255231D01*
X75260386Y-45224930D01*
X75253388Y-45219957D01*
X75253383Y-45219952D01*
X75245052Y-45214032D01*
X75228946Y-45200421D01*
X74728134Y-44699609D01*
X74226376Y-44197852D01*
X74192351Y-44135540D01*
X74190387Y-44123917D01*
X74185276Y-44081680D01*
X74125345Y-43923077D01*
X74104241Y-43892370D01*
X74033614Y-43789608D01*
X74033613Y-43789607D01*
X74029312Y-43783349D01*
X74003509Y-43760359D01*
X73908392Y-43675612D01*
X73908388Y-43675610D01*
X73902721Y-43670560D01*
X73879897Y-43658475D01*
X73768234Y-43599353D01*
X73752881Y-43591224D01*
X73588441Y-43549919D01*
X73580843Y-43549879D01*
X73580841Y-43549879D01*
X73503668Y-43549475D01*
X73418895Y-43549031D01*
X73411508Y-43550805D01*
X73411504Y-43550805D01*
X73295534Y-43578648D01*
X73254032Y-43588612D01*
X73247288Y-43592093D01*
X73247285Y-43592094D01*
X73121773Y-43656876D01*
X73103369Y-43666375D01*
X72994129Y-43761671D01*
X72929650Y-43791377D01*
X72859343Y-43781508D01*
X72822208Y-43755815D01*
X72452405Y-43386012D01*
X72418379Y-43323700D01*
X72415500Y-43296917D01*
X72415500Y-42167499D01*
X72435502Y-42099378D01*
X72489158Y-42052885D01*
X72559432Y-42042781D01*
X72609391Y-42063289D01*
X72609599Y-42062896D01*
X72613616Y-42065023D01*
X72616362Y-42066150D01*
X72617924Y-42067304D01*
X72617926Y-42067305D01*
X72625500Y-42072899D01*
X72752605Y-42117535D01*
X72760251Y-42118258D01*
X72760252Y-42118258D01*
X72766335Y-42118833D01*
X72783971Y-42120500D01*
X72984830Y-42120500D01*
X73186028Y-42120499D01*
X73188976Y-42120220D01*
X73188985Y-42120220D01*
X73209745Y-42118258D01*
X73209746Y-42118258D01*
X73217395Y-42117535D01*
X73224641Y-42114991D01*
X73224643Y-42114990D01*
X73319307Y-42081746D01*
X73344500Y-42072899D01*
X73353638Y-42066150D01*
X73445291Y-41998454D01*
X73452862Y-41992862D01*
X73491622Y-41940385D01*
X73527305Y-41892074D01*
X73527306Y-41892073D01*
X73532899Y-41884500D01*
X73577535Y-41757395D01*
X73580442Y-41758416D01*
X73607598Y-41708795D01*
X73915675Y-41400718D01*
X73977987Y-41366692D01*
X74048802Y-41371757D01*
G37*
%TD.AperFunction*%
%TA.AperFunction,Conductor*%
G36*
X91909012Y-36187992D02*
G01*
X91915595Y-36194120D01*
X92412595Y-36691119D01*
X92446620Y-36753432D01*
X92449500Y-36780215D01*
X92449500Y-41919785D01*
X92429498Y-41987906D01*
X92412595Y-42008880D01*
X92358880Y-42062595D01*
X92296568Y-42096621D01*
X92269785Y-42099500D01*
X91005354Y-42099500D01*
X91001650Y-42099941D01*
X91001647Y-42099941D01*
X90994254Y-42100821D01*
X90979154Y-42102618D01*
X90935147Y-42122165D01*
X90864774Y-42131539D01*
X90800503Y-42101376D01*
X90762742Y-42041255D01*
X90758000Y-42007014D01*
X90758000Y-39884000D01*
X90778002Y-39815879D01*
X90831658Y-39769386D01*
X90884000Y-39758000D01*
X91124000Y-39758000D01*
X91129628Y-39757395D01*
X91152530Y-39754933D01*
X91231980Y-39746391D01*
X91235264Y-39745677D01*
X91235268Y-39745676D01*
X91260339Y-39740222D01*
X91284322Y-39735005D01*
X91387372Y-39700707D01*
X91509010Y-39622535D01*
X91517208Y-39615432D01*
X91559273Y-39578982D01*
X91562666Y-39576042D01*
X91574257Y-39562666D01*
X91585913Y-39549214D01*
X91657355Y-39466766D01*
X91670551Y-39437872D01*
X91694398Y-39385653D01*
X91717421Y-39335240D01*
X91724396Y-39311486D01*
X91736154Y-39271442D01*
X91736155Y-39271438D01*
X91737423Y-39267119D01*
X91740948Y-39242605D01*
X91757361Y-39128448D01*
X91757362Y-39128441D01*
X91758000Y-39124000D01*
X91758000Y-38126000D01*
X91746391Y-38018020D01*
X91735005Y-37965678D01*
X91706948Y-37881379D01*
X91700500Y-37841589D01*
X91700500Y-36283216D01*
X91720502Y-36215095D01*
X91774158Y-36168602D01*
X91844432Y-36158498D01*
X91909012Y-36187992D01*
G37*
%TD.AperFunction*%
%TA.AperFunction,Conductor*%
G36*
X82116621Y-36670502D02*
G01*
X82163114Y-36724158D01*
X82174500Y-36776500D01*
X82174500Y-37174646D01*
X82177618Y-37200846D01*
X82181456Y-37209486D01*
X82181456Y-37209487D01*
X82218140Y-37292074D01*
X82223061Y-37303153D01*
X82231294Y-37311372D01*
X82231295Y-37311373D01*
X82262835Y-37342858D01*
X82302287Y-37382241D01*
X82312924Y-37386944D01*
X82312926Y-37386945D01*
X82355137Y-37405606D01*
X82404673Y-37427506D01*
X82430354Y-37430500D01*
X82952300Y-37430500D01*
X83020421Y-37450502D01*
X83053127Y-37480936D01*
X83062097Y-37492905D01*
X83060636Y-37494000D01*
X83089422Y-37546717D01*
X83084357Y-37617532D01*
X83041810Y-37674368D01*
X82975290Y-37699179D01*
X82966301Y-37699500D01*
X82061205Y-37699500D01*
X81993084Y-37679498D01*
X81946591Y-37625842D01*
X81938335Y-37596514D01*
X81938000Y-37596596D01*
X81936188Y-37589220D01*
X81935276Y-37581680D01*
X81875345Y-37423077D01*
X81847279Y-37382241D01*
X81783614Y-37289608D01*
X81783613Y-37289607D01*
X81779312Y-37283349D01*
X81773119Y-37277831D01*
X81658392Y-37175612D01*
X81658388Y-37175610D01*
X81652721Y-37170560D01*
X81624265Y-37155493D01*
X81568960Y-37126211D01*
X81502881Y-37091224D01*
X81338441Y-37049919D01*
X81330843Y-37049879D01*
X81330841Y-37049879D01*
X81253668Y-37049475D01*
X81168895Y-37049031D01*
X81161508Y-37050805D01*
X81161504Y-37050805D01*
X81033726Y-37081483D01*
X81004032Y-37088612D01*
X80997288Y-37092093D01*
X80997285Y-37092094D01*
X80899114Y-37142764D01*
X80853369Y-37166375D01*
X80847647Y-37171367D01*
X80847645Y-37171368D01*
X80802996Y-37210318D01*
X80725604Y-37277831D01*
X80694930Y-37321476D01*
X80644250Y-37393587D01*
X80628113Y-37416547D01*
X80566524Y-37574513D01*
X80565532Y-37582046D01*
X80565532Y-37582047D01*
X80548412Y-37712094D01*
X80544394Y-37742611D01*
X80562999Y-37911135D01*
X80581785Y-37962470D01*
X80603340Y-38021370D01*
X80621266Y-38070356D01*
X80715830Y-38211083D01*
X80721442Y-38216190D01*
X80721445Y-38216193D01*
X80835612Y-38320077D01*
X80835616Y-38320080D01*
X80841233Y-38325191D01*
X80847906Y-38328814D01*
X80847910Y-38328817D01*
X80983558Y-38402467D01*
X80983560Y-38402468D01*
X80990235Y-38406092D01*
X81143413Y-38446277D01*
X81200534Y-38479058D01*
X81294048Y-38572572D01*
X81328074Y-38634884D01*
X81323009Y-38705699D01*
X81280462Y-38762535D01*
X81262744Y-38773632D01*
X81235120Y-38787890D01*
X81235117Y-38787892D01*
X81228369Y-38791375D01*
X81197332Y-38818451D01*
X81132850Y-38848157D01*
X81114504Y-38849500D01*
X80201821Y-38849500D01*
X80161344Y-38840136D01*
X80160768Y-38842001D01*
X80151423Y-38839113D01*
X80142639Y-38834819D01*
X80132964Y-38833408D01*
X80132962Y-38833407D01*
X80076431Y-38825160D01*
X80076425Y-38825160D01*
X80071904Y-38824500D01*
X79435173Y-38824500D01*
X79367052Y-38804498D01*
X79334347Y-38774065D01*
X79293285Y-38719276D01*
X79280724Y-38706715D01*
X79225935Y-38665653D01*
X79183420Y-38608794D01*
X79175500Y-38564827D01*
X79175500Y-37928096D01*
X79174831Y-37923548D01*
X79174830Y-37923541D01*
X79166423Y-37866431D01*
X79166422Y-37866429D01*
X79164997Y-37856746D01*
X79138005Y-37801770D01*
X79116327Y-37757616D01*
X79116326Y-37757614D01*
X79111737Y-37748268D01*
X79026210Y-37662890D01*
X78961344Y-37631182D01*
X78926424Y-37614113D01*
X78926423Y-37614113D01*
X78917639Y-37609819D01*
X78907964Y-37608408D01*
X78907962Y-37608407D01*
X78851431Y-37600160D01*
X78851425Y-37600160D01*
X78846904Y-37599500D01*
X78653096Y-37599500D01*
X78648548Y-37600169D01*
X78648541Y-37600170D01*
X78591431Y-37608577D01*
X78591429Y-37608578D01*
X78581746Y-37610003D01*
X78572958Y-37614318D01*
X78572957Y-37614318D01*
X78555470Y-37622904D01*
X78485507Y-37634972D01*
X78444606Y-37623001D01*
X78417639Y-37609819D01*
X78407964Y-37608408D01*
X78407962Y-37608407D01*
X78351431Y-37600160D01*
X78351425Y-37600160D01*
X78346904Y-37599500D01*
X78313938Y-37599500D01*
X78245817Y-37579498D01*
X78224843Y-37562595D01*
X78212836Y-37550588D01*
X78106765Y-37469198D01*
X78092579Y-37461008D01*
X77969059Y-37409844D01*
X77953242Y-37405606D01*
X77853981Y-37392538D01*
X77845772Y-37392000D01*
X77776500Y-37392000D01*
X77708379Y-37371998D01*
X77661886Y-37318342D01*
X77650500Y-37266000D01*
X77650500Y-36968083D01*
X77670502Y-36899962D01*
X77687405Y-36878988D01*
X77878988Y-36687405D01*
X77941300Y-36653379D01*
X77968083Y-36650500D01*
X82048500Y-36650500D01*
X82116621Y-36670502D01*
G37*
%TD.AperFunction*%
%TA.AperFunction,Conductor*%
G36*
X86687968Y-35482593D02*
G01*
X86733030Y-35511554D01*
X86850119Y-35628643D01*
X86853772Y-35632452D01*
X86895799Y-35678156D01*
X86932802Y-35701099D01*
X86942552Y-35707800D01*
X86977217Y-35734112D01*
X86989720Y-35739062D01*
X86991195Y-35739646D01*
X87011199Y-35749707D01*
X87023986Y-35757635D01*
X87032237Y-35760032D01*
X87032239Y-35760033D01*
X87065772Y-35769775D01*
X87077002Y-35773620D01*
X87117453Y-35789636D01*
X87125994Y-35790534D01*
X87125995Y-35790534D01*
X87132408Y-35791208D01*
X87154383Y-35795520D01*
X87168825Y-35799715D01*
X87176308Y-35800264D01*
X87177208Y-35800331D01*
X87177219Y-35800331D01*
X87179515Y-35800500D01*
X87210343Y-35800500D01*
X87278464Y-35820502D01*
X87324957Y-35874158D01*
X87335061Y-35944432D01*
X87325583Y-35977446D01*
X87302494Y-36029673D01*
X87299500Y-36055354D01*
X87299500Y-36919612D01*
X87279498Y-36987733D01*
X87225842Y-37034226D01*
X87173500Y-37045612D01*
X86918881Y-37045612D01*
X86913605Y-37045501D01*
X86909198Y-37045316D01*
X86851594Y-37042902D01*
X86843229Y-37044864D01*
X86809226Y-37052839D01*
X86797555Y-37055002D01*
X86782659Y-37057043D01*
X86754456Y-37060906D01*
X86746572Y-37064318D01*
X86746571Y-37064318D01*
X86740658Y-37066877D01*
X86719389Y-37073911D01*
X86713116Y-37075382D01*
X86713114Y-37075383D01*
X86704752Y-37077344D01*
X86697224Y-37081483D01*
X86697223Y-37081483D01*
X86666623Y-37098306D01*
X86655961Y-37103529D01*
X86623915Y-37117396D01*
X86623914Y-37117397D01*
X86616033Y-37120807D01*
X86609360Y-37126211D01*
X86604347Y-37130270D01*
X86585759Y-37142761D01*
X86572580Y-37150006D01*
X86564466Y-37157009D01*
X86539930Y-37181545D01*
X86530129Y-37190370D01*
X86505496Y-37210318D01*
X86498818Y-37215726D01*
X86493844Y-37222725D01*
X86493843Y-37222726D01*
X86487922Y-37231058D01*
X86474312Y-37247163D01*
X86252278Y-37469198D01*
X86058881Y-37662595D01*
X85996568Y-37696620D01*
X85969785Y-37699500D01*
X84533699Y-37699500D01*
X84465578Y-37679498D01*
X84419085Y-37625842D01*
X84408981Y-37555568D01*
X84438475Y-37490988D01*
X84442908Y-37486227D01*
X84446873Y-37480936D01*
X84503731Y-37438421D01*
X84547700Y-37430500D01*
X85069646Y-37430500D01*
X85073350Y-37430059D01*
X85073353Y-37430059D01*
X85080746Y-37429179D01*
X85095846Y-37427382D01*
X85129378Y-37412488D01*
X85187518Y-37386663D01*
X85198153Y-37381939D01*
X85277241Y-37302713D01*
X85285495Y-37284045D01*
X85318675Y-37208992D01*
X85322506Y-37200327D01*
X85325500Y-37174646D01*
X85325500Y-36025354D01*
X85322382Y-35999154D01*
X85299934Y-35948615D01*
X85290560Y-35878243D01*
X85320723Y-35813972D01*
X85380844Y-35776211D01*
X85415085Y-35771469D01*
X86192464Y-35771469D01*
X86201895Y-35768405D01*
X86201899Y-35768404D01*
X86213384Y-35764672D01*
X86232609Y-35760056D01*
X86244543Y-35758166D01*
X86244544Y-35758166D01*
X86254335Y-35756615D01*
X86263168Y-35752114D01*
X86263172Y-35752113D01*
X86273937Y-35746628D01*
X86292197Y-35739064D01*
X86313121Y-35732265D01*
X86330924Y-35719330D01*
X86347776Y-35709004D01*
X86358533Y-35703523D01*
X86367373Y-35699019D01*
X86389936Y-35676456D01*
X86389940Y-35676453D01*
X86554840Y-35511553D01*
X86617152Y-35477528D01*
X86687968Y-35482593D01*
G37*
%TD.AperFunction*%
%TA.AperFunction,Conductor*%
G36*
X85242962Y-32950597D02*
G01*
X85299994Y-32952838D01*
X85307100Y-32950954D01*
X85315344Y-32950500D01*
X86155454Y-32950500D01*
X86223575Y-32970502D01*
X86240254Y-32983307D01*
X86335612Y-33070077D01*
X86335616Y-33070080D01*
X86341233Y-33075191D01*
X86347906Y-33078814D01*
X86347910Y-33078817D01*
X86483558Y-33152467D01*
X86483560Y-33152468D01*
X86490235Y-33156092D01*
X86497584Y-33158020D01*
X86646883Y-33197188D01*
X86646885Y-33197188D01*
X86654233Y-33199116D01*
X86740609Y-33200473D01*
X86816161Y-33201660D01*
X86816164Y-33201660D01*
X86823760Y-33201779D01*
X86831165Y-33200083D01*
X86831166Y-33200083D01*
X86919015Y-33179963D01*
X86989029Y-33163928D01*
X87140498Y-33087747D01*
X87148763Y-33080688D01*
X87150948Y-33079709D01*
X87152602Y-33078610D01*
X87152785Y-33078886D01*
X87213553Y-33051658D01*
X87230593Y-33050500D01*
X87447507Y-33050500D01*
X87452784Y-33050611D01*
X87514794Y-33053210D01*
X87526348Y-33050500D01*
X87557162Y-33043273D01*
X87568833Y-33041110D01*
X87588196Y-33038457D01*
X87611931Y-33035206D01*
X87612052Y-33036091D01*
X87630966Y-33033500D01*
X88378000Y-33033500D01*
X88446121Y-33053502D01*
X88492614Y-33107158D01*
X88504000Y-33159500D01*
X88504000Y-33415500D01*
X88483998Y-33483621D01*
X88430342Y-33530114D01*
X88378000Y-33541500D01*
X87285115Y-33541500D01*
X87269876Y-33545975D01*
X87268671Y-33547365D01*
X87267158Y-33554321D01*
X87267337Y-33557782D01*
X87276804Y-33649021D01*
X87279697Y-33662417D01*
X87328830Y-33809687D01*
X87335004Y-33822866D01*
X87416470Y-33954514D01*
X87425506Y-33965915D01*
X87511432Y-34051691D01*
X87545511Y-34113973D01*
X87548414Y-34140864D01*
X87548414Y-34269108D01*
X87528412Y-34337229D01*
X87474756Y-34383722D01*
X87404482Y-34393826D01*
X87339902Y-34364332D01*
X87318576Y-34340479D01*
X87279312Y-34283349D01*
X87265985Y-34271475D01*
X87158392Y-34175612D01*
X87158388Y-34175610D01*
X87152721Y-34170560D01*
X87145656Y-34166819D01*
X87020060Y-34100320D01*
X87002881Y-34091224D01*
X86838441Y-34049919D01*
X86830843Y-34049879D01*
X86830841Y-34049879D01*
X86753668Y-34049475D01*
X86668895Y-34049031D01*
X86661508Y-34050805D01*
X86661504Y-34050805D01*
X86518162Y-34085220D01*
X86504032Y-34088612D01*
X86497288Y-34092093D01*
X86497285Y-34092094D01*
X86376930Y-34154214D01*
X86353369Y-34166375D01*
X86347647Y-34171367D01*
X86347645Y-34171368D01*
X86342780Y-34175612D01*
X86225604Y-34277831D01*
X86221237Y-34284045D01*
X86144082Y-34393826D01*
X86128113Y-34416547D01*
X86066524Y-34574513D01*
X86065532Y-34582046D01*
X86065532Y-34582047D01*
X86046025Y-34730225D01*
X86044394Y-34742611D01*
X86052331Y-34814499D01*
X86039925Y-34884402D01*
X86016187Y-34917420D01*
X86000043Y-34933564D01*
X85937731Y-34967590D01*
X85910948Y-34970469D01*
X85451500Y-34970469D01*
X85383379Y-34950467D01*
X85336886Y-34896811D01*
X85325500Y-34844469D01*
X85325500Y-33825354D01*
X85322382Y-33799154D01*
X85316555Y-33786034D01*
X85281663Y-33707482D01*
X85276939Y-33696847D01*
X85197713Y-33617759D01*
X85175553Y-33607962D01*
X85121337Y-33562125D01*
X85100500Y-33492722D01*
X85100500Y-33100281D01*
X85100499Y-33100275D01*
X85100499Y-33076500D01*
X85120501Y-33008379D01*
X85174157Y-32961886D01*
X85226499Y-32950500D01*
X85238016Y-32950500D01*
X85242962Y-32950597D01*
G37*
%TD.AperFunction*%
%TA.AperFunction,Conductor*%
G36*
X79768512Y-30403520D02*
G01*
X79801150Y-30447595D01*
X79808061Y-30463153D01*
X79816294Y-30471372D01*
X79816295Y-30471373D01*
X79879053Y-30534022D01*
X79879055Y-30534023D01*
X79887287Y-30542241D01*
X79889137Y-30543059D01*
X79930092Y-30593209D01*
X79940000Y-30642185D01*
X79940000Y-30712000D01*
X79919998Y-30780121D01*
X79866342Y-30826614D01*
X79814000Y-30838000D01*
X79686000Y-30838000D01*
X79617879Y-30817998D01*
X79571386Y-30764342D01*
X79560000Y-30712000D01*
X79560000Y-30498744D01*
X79580002Y-30430623D01*
X79633658Y-30384130D01*
X79703932Y-30374026D01*
X79768512Y-30403520D01*
G37*
%TD.AperFunction*%
%TD*%
%TA.AperFunction,Conductor*%
%TO.N,+3V3*%
G36*
X91192121Y-38020002D02*
G01*
X91238614Y-38073658D01*
X91250000Y-38126000D01*
X91250000Y-39124000D01*
X91229998Y-39192121D01*
X91176342Y-39238614D01*
X91124000Y-39250000D01*
X90250000Y-39250000D01*
X90250000Y-42374000D01*
X90229998Y-42442121D01*
X90176342Y-42488614D01*
X90124000Y-42500000D01*
X88876000Y-42500000D01*
X88807879Y-42479998D01*
X88761386Y-42426342D01*
X88750000Y-42374000D01*
X88750000Y-39250000D01*
X87876000Y-39250000D01*
X87807879Y-39229998D01*
X87761386Y-39176342D01*
X87750000Y-39124000D01*
X87750000Y-38126000D01*
X87770002Y-38057879D01*
X87823658Y-38011386D01*
X87876000Y-38000000D01*
X91124000Y-38000000D01*
X91192121Y-38020002D01*
G37*
%TD.AperFunction*%
%TD*%
M02*
