%TF.GenerationSoftware,KiCad,Pcbnew,(5.99.0-11663-g8172737d6f)*%
%TF.CreationDate,2021-08-09T10:24:35+02:00*%
%TF.ProjectId,Framework_Serial,4672616d-6577-46f7-926b-5f5365726961,rev?*%
%TF.SameCoordinates,Original*%
%TF.FileFunction,Soldermask,Top*%
%TF.FilePolarity,Negative*%
%FSLAX46Y46*%
G04 Gerber Fmt 4.6, Leading zero omitted, Abs format (unit mm)*
G04 Created by KiCad (PCBNEW (5.99.0-11663-g8172737d6f)) date 2021-08-09 10:24:35*
%MOMM*%
%LPD*%
G01*
G04 APERTURE LIST*
G04 Aperture macros list*
%AMRoundRect*
0 Rectangle with rounded corners*
0 $1 Rounding radius*
0 $2 $3 $4 $5 $6 $7 $8 $9 X,Y pos of 4 corners*
0 Add a 4 corners polygon primitive as box body*
4,1,4,$2,$3,$4,$5,$6,$7,$8,$9,$2,$3,0*
0 Add four circle primitives for the rounded corners*
1,1,$1+$1,$2,$3*
1,1,$1+$1,$4,$5*
1,1,$1+$1,$6,$7*
1,1,$1+$1,$8,$9*
0 Add four rect primitives between the rounded corners*
20,1,$1+$1,$2,$3,$4,$5,0*
20,1,$1+$1,$4,$5,$6,$7,0*
20,1,$1+$1,$6,$7,$8,$9,0*
20,1,$1+$1,$8,$9,$2,$3,0*%
G04 Aperture macros list end*
%ADD10C,1.552000*%
%ADD11R,1.700000X1.700000*%
%ADD12O,1.700000X1.700000*%
%ADD13R,1.500000X1.500000*%
%ADD14RoundRect,0.243750X-0.456250X0.243750X-0.456250X-0.243750X0.456250X-0.243750X0.456250X0.243750X0*%
%ADD15C,1.000000*%
%ADD16R,3.800000X2.000000*%
%ADD17R,1.500000X2.000000*%
%ADD18RoundRect,0.147500X-0.147500X-0.172500X0.147500X-0.172500X0.147500X0.172500X-0.147500X0.172500X0*%
%ADD19RoundRect,0.147500X0.147500X0.172500X-0.147500X0.172500X-0.147500X-0.172500X0.147500X-0.172500X0*%
%ADD20RoundRect,0.147500X-0.172500X0.147500X-0.172500X-0.147500X0.172500X-0.147500X0.172500X0.147500X0*%
%ADD21RoundRect,0.147500X0.172500X-0.147500X0.172500X0.147500X-0.172500X0.147500X-0.172500X-0.147500X0*%
%ADD22RoundRect,0.218750X0.256250X-0.218750X0.256250X0.218750X-0.256250X0.218750X-0.256250X-0.218750X0*%
%ADD23RoundRect,0.218750X-0.256250X0.218750X-0.256250X-0.218750X0.256250X-0.218750X0.256250X0.218750X0*%
%ADD24C,2.200000*%
%ADD25RoundRect,0.062500X-0.062500X0.337500X-0.062500X-0.337500X0.062500X-0.337500X0.062500X0.337500X0*%
%ADD26RoundRect,0.062500X-0.337500X0.062500X-0.337500X-0.062500X0.337500X-0.062500X0.337500X0.062500X0*%
%ADD27R,3.350000X3.350000*%
%ADD28R,0.380000X1.000000*%
%ADD29R,0.700000X1.150000*%
%ADD30R,0.650000X1.060000*%
G04 APERTURE END LIST*
D10*
%TO.C,REF\u002A\u002A*%
X72250000Y-29500000D03*
%TD*%
%TO.C,REF\u002A\u002A*%
X91750000Y-54250000D03*
%TD*%
D11*
%TO.C,J1*%
X90120000Y-47375000D03*
D12*
X87580000Y-47375000D03*
X85040000Y-47375000D03*
X82500000Y-47375000D03*
X79960000Y-47375000D03*
X77420000Y-47375000D03*
X74880000Y-47375000D03*
%TD*%
D13*
%TO.C,TP4*%
X88218020Y-28761941D03*
%TD*%
%TO.C,TP3*%
X76788836Y-28752515D03*
%TD*%
D14*
%TO.C,C8*%
X84750000Y-38812500D03*
X84750000Y-40687500D03*
%TD*%
D15*
%TO.C,TP2*%
X82670051Y-40428698D03*
%TD*%
%TO.C,TP1*%
X76305662Y-45092617D03*
%TD*%
D16*
%TO.C,U3*%
X89500000Y-37100000D03*
D17*
X89500000Y-43400000D03*
X91800000Y-43400000D03*
X87200000Y-43400000D03*
%TD*%
D18*
%TO.C,R4*%
X72015000Y-40500000D03*
X72985000Y-40500000D03*
%TD*%
D19*
%TO.C,R3*%
X72985000Y-39500000D03*
X72015000Y-39500000D03*
%TD*%
D18*
%TO.C,R2*%
X72015000Y-41500000D03*
X72985000Y-41500000D03*
%TD*%
D20*
%TO.C,R1*%
X80250000Y-33265000D03*
X80250000Y-34235000D03*
%TD*%
D21*
%TO.C,C7*%
X75750000Y-36985000D03*
X75750000Y-36015000D03*
%TD*%
D22*
%TO.C,C6*%
X74500000Y-36787500D03*
X74500000Y-35212500D03*
%TD*%
%TO.C,C3*%
X84500000Y-43787500D03*
X84500000Y-42212500D03*
%TD*%
D14*
%TO.C,FB1*%
X90250000Y-31625000D03*
X90250000Y-33500000D03*
%TD*%
D23*
%TO.C,R5*%
X71250000Y-51212500D03*
X71250000Y-52787500D03*
%TD*%
D24*
%TO.C,H1*%
X71204087Y-47253302D03*
%TD*%
D25*
%TO.C,U2*%
X78750000Y-38300000D03*
X78250000Y-38300000D03*
X77750000Y-38300000D03*
X77250000Y-38300000D03*
X76750000Y-38300000D03*
X76250000Y-38300000D03*
X75750000Y-38300000D03*
D26*
X74800000Y-39250000D03*
X74800000Y-39750000D03*
X74800000Y-40250000D03*
X74800000Y-40750000D03*
X74800000Y-41250000D03*
X74800000Y-41750000D03*
X74800000Y-42250000D03*
D25*
X75750000Y-43200000D03*
X76250000Y-43200000D03*
X76750000Y-43200000D03*
X77250000Y-43200000D03*
X77750000Y-43200000D03*
X78250000Y-43200000D03*
X78750000Y-43200000D03*
D26*
X79700000Y-42250000D03*
X79700000Y-41750000D03*
X79700000Y-41250000D03*
X79700000Y-40750000D03*
X79700000Y-40250000D03*
X79700000Y-39750000D03*
X79700000Y-39250000D03*
D27*
X77250000Y-40750000D03*
%TD*%
D23*
%TO.C,R6*%
X93750000Y-51212500D03*
X93750000Y-52787500D03*
%TD*%
D24*
%TO.C,H2*%
X93804087Y-47253302D03*
%TD*%
D28*
%TO.C,P1*%
X79750000Y-29790000D03*
X80250000Y-29790000D03*
X80750000Y-29790000D03*
X81250000Y-29790000D03*
X81750000Y-29790000D03*
X82250000Y-29790000D03*
X82750000Y-29790000D03*
X83250000Y-29790000D03*
X83750000Y-29790000D03*
X84250000Y-29790000D03*
X84750000Y-29790000D03*
X85250000Y-29790000D03*
D29*
X79080000Y-30630000D03*
%TD*%
D23*
%TO.C,C1*%
X88250000Y-31712500D03*
X88250000Y-33287500D03*
%TD*%
D30*
%TO.C,U1*%
X82800000Y-36600000D03*
X83750000Y-36600000D03*
X84700000Y-36600000D03*
X84700000Y-34400000D03*
X83750000Y-34400000D03*
X82800000Y-34400000D03*
%TD*%
D22*
%TO.C,D1*%
X71250000Y-56037500D03*
X71250000Y-54462500D03*
%TD*%
%TO.C,D2*%
X93750000Y-56037500D03*
X93750000Y-54462500D03*
%TD*%
%TO.C,C2*%
X92250000Y-33287500D03*
X92250000Y-31712500D03*
%TD*%
M02*
