%TF.GenerationSoftware,KiCad,Pcbnew,(5.99.0-11663-g8172737d6f)*%
%TF.CreationDate,2021-08-09T10:24:35+02:00*%
%TF.ProjectId,Framework_Serial,4672616d-6577-46f7-926b-5f5365726961,rev?*%
%TF.SameCoordinates,Original*%
%TF.FileFunction,Profile,NP*%
%FSLAX46Y46*%
G04 Gerber Fmt 4.6, Leading zero omitted, Abs format (unit mm)*
G04 Created by KiCad (PCBNEW (5.99.0-11663-g8172737d6f)) date 2021-08-09 10:24:35*
%MOMM*%
%LPD*%
G01*
G04 APERTURE LIST*
%TA.AperFunction,Profile*%
%ADD10C,0.050000*%
%TD*%
G04 APERTURE END LIST*
D10*
X87200000Y-29450000D02*
G75*
G02*
X86900000Y-29750000I-300000J0D01*
G01*
X95500000Y-57450000D02*
G75*
G02*
X95200000Y-57750000I-300000J0D01*
G01*
X94500000Y-30950000D02*
G75*
G03*
X94800000Y-31250000I300000J0D01*
G01*
X94800000Y-31250000D02*
X95200000Y-31250000D01*
X69800000Y-31250000D02*
X70200000Y-31250000D01*
X95500000Y-31550000D02*
X95500000Y-57450000D01*
X77500000Y-27750000D02*
G75*
G02*
X77800000Y-28050000I0J-300000D01*
G01*
X70500000Y-30950000D02*
X70500000Y-28050000D01*
X70500000Y-28050000D02*
G75*
G02*
X70800000Y-27750000I300000J0D01*
G01*
X78100000Y-29750000D02*
X78200000Y-29750000D01*
X86800000Y-29750000D02*
X86900000Y-29750000D01*
X69800000Y-31250000D02*
G75*
G03*
X69500000Y-31550000I0J-300000D01*
G01*
X69500000Y-31550000D02*
X69500000Y-57450000D01*
X70200000Y-31250000D02*
G75*
G03*
X70500000Y-30950000I0J300000D01*
G01*
X78100000Y-29750000D02*
G75*
G02*
X77800000Y-29450000I0J300000D01*
G01*
X94200000Y-27750000D02*
G75*
G02*
X94500000Y-28050000I0J-300000D01*
G01*
X95500000Y-31550000D02*
G75*
G03*
X95200000Y-31250000I-300000J0D01*
G01*
X77800000Y-29450000D02*
X77800000Y-28050000D01*
X69800000Y-57750000D02*
G75*
G02*
X69500000Y-57450000I0J300000D01*
G01*
X87200000Y-29450000D02*
X87200000Y-28050000D01*
X69800000Y-57750000D02*
X95200000Y-57750000D01*
X77500000Y-27750000D02*
X70800000Y-27750000D01*
X94500000Y-30950000D02*
X94500000Y-28050000D01*
X87200000Y-28050000D02*
G75*
G02*
X87500000Y-27750000I300000J0D01*
G01*
X87500000Y-27750000D02*
X94200000Y-27750000D01*
%TO.C,P1*%
X85550000Y-29090000D02*
X85550000Y-29450000D01*
X79450000Y-29090000D02*
X79450000Y-29450000D01*
X85850000Y-29750000D02*
X86800000Y-29750000D01*
X79150000Y-29750000D02*
X78200000Y-29750000D01*
X79750000Y-28790000D02*
X85250000Y-28790000D01*
X85550000Y-29090000D02*
G75*
G03*
X85250000Y-28790000I-300000J0D01*
G01*
X79750000Y-28790000D02*
G75*
G03*
X79450000Y-29090000I0J-300000D01*
G01*
X79150000Y-29750000D02*
G75*
G03*
X79450000Y-29450000I0J300000D01*
G01*
X85550000Y-29450000D02*
G75*
G03*
X85850000Y-29750000I300000J0D01*
G01*
%TD*%
M02*
