M48
; DRILL file {KiCad (5.99.0-11663-g8172737d6f)} date Mon Aug  9 10:24:27 2021
; FORMAT={-:-/ absolute / inch / decimal}
; #@! TF.CreationDate,2021-08-09T10:24:27+02:00
; #@! TF.GenerationSoftware,Kicad,Pcbnew,(5.99.0-11663-g8172737d6f)
; #@! TF.FileFunction,MixedPlating,1,2
FMAT,2
INCH
; #@! TA.AperFunction,Plated,PTH,ViaDrill
T1C0.0157
; #@! TA.AperFunction,Plated,PTH,ComponentDrill
T2C0.0394
; #@! TA.AperFunction,NonPlated,NPTH,ComponentDrill
T3C0.0454
; #@! TA.AperFunction,NonPlated,NPTH,ComponentDrill
T4C0.0866
%
G90
G05
T1
X2.7854Y-1.3091
X2.7854Y-1.437
X2.7854Y-1.5945
X2.7854Y-1.7323
X2.815Y-1.5157
X2.8543Y-1.9685
X2.8839Y-1.6831
X2.8839Y-2.0669
X2.8839Y-2.1654
X2.8937Y-1.7421
X2.9232Y-1.5157
X2.9331Y-2.2343
X2.9528Y-1.752
X3.0217Y-1.1319
X3.0217Y-1.5846
X3.0217Y-1.624
X3.0315Y-1.2894
X3.0315Y-1.3583
X3.0315Y-2.2343
X3.061Y-1.5846
X3.061Y-1.624
X3.061Y-1.752
X3.1299Y-2.2343
X3.1398Y-1.4665
X3.1594Y-1.7421
X3.1693Y-1.2402
X3.1988Y-1.4862
X3.2136Y-1.5502
X3.248Y-2.2343
X3.3268Y-1.9783
X3.3465Y-2.2343
X3.3957Y-1.437
X3.4154Y-1.2795
X3.4154Y-1.3681
X3.4154Y-1.5945
X3.4449Y-2.2343
X3.4547Y-1.5945
X3.4744Y-1.1319
X3.4744Y-1.2008
X3.4744Y-1.3386
X3.4839Y-1.4408
X3.4839Y-1.4802
X3.5233Y-1.4408
X3.5233Y-1.4802
X3.5531Y-2.2343
X3.5627Y-1.4408
X3.5627Y-1.4802
X3.5925Y-1.9587
X3.5925Y-2.0669
X3.6024Y-1.5945
X3.6614Y-1.1516
X3.7205Y-1.3189
X3.7205Y-1.4567
X3.7205Y-1.5846
X3.7205Y-1.7323
T2
X2.948Y-1.8652
X3.048Y-1.8652
X3.148Y-1.8652
X3.248Y-1.8652
X3.348Y-1.8652
X3.448Y-1.8652
X3.548Y-1.8652
T3
X2.8445Y-1.1614
X3.6122Y-2.1358
T4
X2.8033Y-1.8604
X3.6931Y-1.8604
T0
M30
